<svg width="122" height="41" viewBox="0 0 122 41" fill="none" xmlns="http://www.w3.org/2000/svg">
<g clip-path="url(#clip0_2500_105876)">
<path d="M52.0839 21.395C52.0839 27.145 47.5839 31.395 42.0539 31.395C36.5239 31.395 32.0239 27.155 32.0239 21.395C32.0239 15.635 36.5239 11.395 42.0539 11.395C47.5839 11.395 52.0839 15.595 52.0839 21.395ZM47.6939 21.395C47.6939 17.795 45.0839 15.335 42.0539 15.335C39.0239 15.335 36.4139 17.795 36.4139 21.395C36.4139 24.995 39.0239 27.455 42.0539 27.455C45.0839 27.455 47.6939 24.955 47.6939 21.395Z" fill="#6A6A6A"/>
<path d="M74.0839 21.395C74.0839 27.145 69.5839 31.395 64.0539 31.395C58.5239 31.395 54.0239 27.155 54.0239 21.395C54.0239 15.635 58.5239 11.395 64.0539 11.395C69.5839 11.395 74.0839 15.595 74.0839 21.395ZM69.6939 21.395C69.6939 17.795 67.0839 15.335 64.0539 15.335C61.0239 15.335 58.4139 17.795 58.4139 21.395C58.4139 24.995 61.0239 27.455 64.0539 27.455C67.0839 27.455 69.6939 24.955 69.6939 21.395Z" fill="#B9B9B9"/>
<path d="M95.1937 11.995V29.945C95.1937 37.325 90.8437 40.345 85.6937 40.345C80.8537 40.345 77.9337 37.105 76.8337 34.455L80.6537 32.865C81.3337 34.495 83.0037 36.415 85.6837 36.415C88.9737 36.415 91.0237 34.385 91.0237 30.555V29.115H90.8737C89.8937 30.325 87.9937 31.385 85.6137 31.385C80.6137 31.385 76.0337 27.035 76.0337 21.435C76.0337 15.835 80.6137 11.405 85.6137 11.405C87.9937 11.405 89.8937 12.465 90.8737 13.645H91.0237V12.015H95.1937V11.995ZM91.3337 21.415C91.3337 17.895 88.9837 15.325 85.9937 15.325C83.0037 15.325 80.4237 17.895 80.4237 21.415C80.4237 24.935 82.9637 27.435 85.9937 27.435C89.0237 27.435 91.3337 24.895 91.3337 21.415Z" fill="#808080"/>
<path d="M101.314 1.39502V30.685H97.0337V1.39502H101.314Z" fill="#AAAAAA"/>
<path d="M117.874 24.685L121.284 26.955C120.184 28.585 117.534 31.385 112.954 31.385C107.274 31.385 103.034 26.995 103.034 21.385C103.034 15.445 107.314 11.385 112.464 11.385C117.614 11.385 120.184 15.515 121.014 17.745L121.474 18.885L108.114 24.415C109.134 26.425 110.724 27.445 112.954 27.445C115.184 27.445 116.744 26.345 117.874 24.675V24.685ZM107.384 21.085L116.314 17.375C115.824 16.125 114.344 15.255 112.604 15.255C110.374 15.255 107.264 17.225 107.384 21.085Z" fill="#6A6A6A"/>
<path d="M15.7737 18.845V14.605H30.0637C30.2037 15.345 30.2737 16.215 30.2737 17.165C30.2737 20.345 29.4037 24.285 26.6037 27.085C23.8737 29.925 20.3937 31.435 15.7837 31.435C7.22369 31.435 0.0336914 24.465 0.0336914 15.915C0.0336914 7.36502 7.22369 0.39502 15.7837 0.39502C20.5137 0.39502 23.8837 2.25502 26.4237 4.67502L23.4337 7.66502C21.6137 5.96502 19.1537 4.63502 15.7837 4.63502C9.53369 4.63502 4.65369 9.66502 4.65369 15.915C4.65369 22.165 9.54369 27.195 15.7837 27.195C19.8337 27.195 22.1437 25.565 23.6237 24.085C24.8237 22.885 25.6137 21.175 25.9237 18.835H15.7737V18.845Z" fill="#808080"/>
</g>
<defs>
<clipPath id="clip0_2500_105876">
<rect width="121.44" height="39.95" fill="white" transform="translate(0.0336914 0.39502)"/>
</clipPath>
</defs>
</svg>
