<svg width="159" height="33" viewBox="0 0 159 33" fill="none" xmlns="http://www.w3.org/2000/svg">
<g opacity="0.5" clip-path="url(#clip0_2500_105848)">
<path d="M16.9051 0.949951H7.60506V1.71995H10.5851V17.09C10.5851 21.68 9.27506 22.99 6.41506 22.99C5.34506 23.11 4.38506 22.33 4.27506 21.26V20.9C4.27506 19.23 4.15506 18.22 2.66506 18.22C1.17506 18.22 0.935059 19.77 0.935059 20.25C0.935059 22.3899 1.88506 24 6.11506 24C11.1751 24 13.8651 22.33 13.8651 16.67V1.71995H16.9651L16.9051 0.949951Z" fill="black"/>
<path d="M18.0951 20.3699C17.6151 20.3699 17.1451 20.5499 16.7851 20.9099C16.4251 21.2699 16.2451 21.7399 16.2451 22.2199C16.2451 22.6999 16.4251 23.1699 16.7851 23.4699C17.1451 23.8299 17.6151 24.0099 18.0951 24.0099C18.5751 24.0099 19.0451 23.8299 19.4051 23.4699C19.7651 23.1099 19.9451 22.6999 19.9451 22.2199C19.9451 21.2099 19.1751 20.4299 18.1551 20.4299H18.0951" fill="black"/>
<path d="M38.765 20.3701C37.815 20.3701 36.975 21.1401 36.915 22.1001V22.1601C36.915 22.6401 37.155 23.1101 37.515 23.4101C37.875 23.7701 38.345 23.9501 38.825 23.9501C39.305 23.9501 39.775 23.7701 40.135 23.4101C40.495 23.1101 40.675 22.6401 40.675 22.1601C40.675 21.6801 40.495 21.2101 40.135 20.8501C39.775 20.4901 39.365 20.3101 38.885 20.3101" fill="black"/>
<path d="M32.3349 0.949951H23.1549V1.71995H25.8349V19.24C25.8949 19.96 25.8349 20.67 25.5949 21.38C25.3549 21.86 24.9349 22.27 24.4649 22.39C23.9249 22.57 23.3349 22.69 22.7349 22.69V23.4H32.4449V22.69C31.7849 22.69 31.1949 22.63 30.5949 22.45C30.0549 22.27 29.6449 21.91 29.4649 21.44C29.2849 20.96 29.1649 20.49 29.2249 20.01V13.93H31.6649C38.6949 13.93 40.6649 11.13 40.6649 7.37995C40.6649 3.62995 39.4249 0.949951 32.3349 0.949951ZM31.0249 13.04H29.1749V1.83995H30.8449C36.2649 1.83995 37.5749 4.03995 37.5749 7.61995C37.5749 11.2 35.4349 13.16 31.1449 13.16" fill="black"/>
<path d="M69.6852 21.33C69.5052 20.85 69.4452 20.32 69.5052 19.78V1.72001H71.9452V1.01001H66.1652L59.1352 18.11C59.1352 18.17 59.0752 18.23 59.0152 18.23C58.9552 18.23 58.8952 18.17 58.8352 18.11C58.8352 18.11 51.5652 1.19001 51.5052 1.01001H45.0752V1.72001H47.8752V20.73C47.8752 21.15 47.6952 21.5 47.5152 21.86C47.2752 22.22 46.9152 22.46 46.5052 22.58C46.0852 22.7 45.6152 22.7 45.1952 22.7V23.42H51.5752V22.7C51.1552 22.7 50.8052 22.64 50.4452 22.52C49.9652 22.4 49.6152 22.16 49.3152 21.8C49.0752 21.44 48.9552 21.09 48.8952 20.67L48.8352 19.06V4.05001H49.1952C49.1952 4.05001 57.4752 23.17 57.4752 23.41H58.2452L66.0452 4.23001H66.2252V19.66C66.2252 20.2 66.1652 20.73 66.0452 21.27C65.8652 21.75 65.5052 22.1 65.0952 22.28C64.5552 22.46 64.0252 22.58 63.4852 22.58V23.29H72.3652V22.58C71.8252 22.58 71.2352 22.46 70.6952 22.28C70.2152 22.04 69.8652 21.62 69.6852 21.15" fill="black"/>
<path d="M81.665 6.96997C76.895 6.96997 73.915 10.07 73.915 15.55C73.915 23.59 80.175 24.07 81.545 24.07C84.225 24.07 89.295 22.4 89.295 15.37C89.235 9.88997 86.015 6.96997 81.665 6.96997ZM81.605 23.06C78.035 23.06 77.495 21.27 77.495 15.61C77.495 11.2 77.795 7.85997 81.605 7.85997C85.715 7.85997 85.775 11.32 85.775 15.25C85.775 21.03 84.765 23.05 81.605 23.05V23.06Z" fill="black"/>
<path d="M101.685 7.20996C98.825 7.20996 97.995 8.87996 97.155 10.61H96.915C96.915 10.61 96.495 8.16996 96.375 7.38996H90.835V8.21996H93.815V19.36C93.875 20.13 93.755 20.91 93.455 21.62C93.155 22.16 92.445 22.45 91.365 22.45H90.885V23.46H100.065V22.45H99.645C98.455 22.45 97.915 22.21 97.615 21.68C97.315 20.97 97.135 20.13 97.255 19.36V13.58C97.255 11.67 98.745 9.40996 100.475 9.40996C102.205 9.40996 102.265 12.21 104.345 11.08C105.415 10.42 105.175 7.20996 101.665 7.20996H101.685Z" fill="black"/>
<path d="M138.325 21.7398C137.315 21.7398 137.015 21.1998 136.955 20.3098V11.4998C137.075 10.3098 136.655 9.05985 135.825 8.15985C134.995 7.32985 133.325 6.84985 130.935 6.84985C129.145 6.72985 127.425 7.14985 125.875 8.09985C124.985 8.63985 124.445 9.64985 124.445 10.6598C124.385 11.0798 124.565 11.4898 124.865 11.7898C125.165 12.0298 125.525 12.1498 125.875 12.1498C126.765 12.1498 127.305 11.6698 127.485 10.4798C127.485 9.76985 127.785 9.10985 128.205 8.56985C128.805 8.02985 129.635 7.73985 130.405 7.85985C131.295 7.73985 132.255 8.09985 132.845 8.80985C133.325 9.51985 133.495 10.2998 133.495 11.1298V13.9298C130.575 14.1698 123.605 14.7598 123.905 20.0098C124.145 22.2098 126.045 23.8798 128.255 23.8198C130.335 23.7598 132.305 22.8098 133.615 21.1398C133.915 22.6298 135.225 23.6398 136.715 23.5798C138.865 23.5798 140.175 22.5098 140.285 19.9498H139.745C139.625 21.1398 138.915 21.7398 138.315 21.7398H138.325ZM133.495 20.0098V20.1898C132.545 21.2598 131.235 21.9198 129.805 22.0998C128.435 22.1598 127.245 21.0898 127.185 19.6598V19.2998C127.185 16.3198 131.295 14.8298 133.565 14.8298L133.505 20.0098H133.495Z" fill="black"/>
<path d="M157.155 21.6199C156.735 20.9099 156.555 20.0699 156.555 19.2399V11.9699C156.615 11.0199 156.435 10.1199 156.015 9.28986C155.655 8.62986 155.065 8.03986 154.405 7.67986C153.635 7.31986 152.795 7.13986 151.965 7.13986C149.755 7.07986 147.735 8.26986 146.725 10.2399H146.365L145.765 7.31986H140.815V8.14986H143.315V19.2299C143.315 19.8899 143.255 20.4799 143.135 21.1399C143.015 21.6199 142.655 22.0299 142.185 22.1499C141.765 22.3299 141.295 22.3899 140.815 22.3899V23.3999H148.735V22.3899C148.135 22.4499 147.545 22.1499 147.125 21.7299C146.765 21.0199 146.585 20.2399 146.705 19.4699V15.2399C146.525 13.6899 146.765 12.1399 147.305 10.6499C147.965 9.51986 149.215 8.79986 150.525 8.85986C151.415 8.73986 152.315 9.21986 152.725 9.98986C153.145 11.1799 153.325 12.4899 153.265 13.7399V18.9799C153.325 19.6399 153.325 20.2899 153.265 20.9499C153.205 21.4299 152.965 21.8399 152.555 22.0799C152.135 22.3199 151.725 22.4399 151.305 22.4399V23.4499H158.995V22.4399C158.045 22.3199 157.445 22.0799 157.145 21.6099L157.155 21.6199Z" fill="black"/>
<path d="M121.225 6.3099C120.685 6.5499 120.335 7.0199 120.275 7.5599C120.155 8.2199 119.915 8.5699 119.565 8.6899C119.205 8.8099 118.785 8.7499 118.435 8.6299C117.005 7.3799 115.095 6.7799 113.255 6.8999C109.975 6.6599 107.055 9.0999 106.825 12.3799V13.0999C106.825 16.5599 108.135 18.0999 110.995 18.7599C111.175 18.7599 111.175 18.9999 110.995 18.9999C108.555 19.4199 106.405 20.1299 106.405 22.5199C106.405 23.6499 107.115 24.6599 108.195 25.0199C109.745 25.5599 111.355 25.7899 112.965 25.7399C114.215 25.7399 115.525 25.7999 116.775 25.9199C117.485 25.9799 118.205 26.2199 118.865 26.6399C119.405 27.1199 119.695 27.7699 119.635 28.4899C119.635 29.6199 118.915 30.6299 117.905 31.0499C116.535 31.7099 115.045 31.9999 113.555 31.9399C112.185 32.0599 110.755 31.7599 109.565 31.0499C108.845 30.5099 108.495 29.6199 108.735 28.7899C108.975 28.1299 108.615 27.3599 107.905 27.1199H107.725C107.185 27.0599 106.655 27.2999 106.355 27.7199C106.115 28.1399 105.935 28.6699 105.995 29.2099C106.055 30.7599 107.125 32.0099 108.675 32.3099C110.105 32.7899 111.595 32.9699 113.085 32.9699C114.815 33.0299 116.545 32.7299 118.145 32.0199C120.055 31.1899 121.365 29.3399 121.365 27.2499C121.425 26.2399 121.125 25.2799 120.595 24.4499C118.985 22.2499 116.725 22.5399 111.595 22.3099C109.155 22.3099 108.675 21.8899 108.675 21.1799C108.675 20.0499 109.565 19.6299 113.085 19.0899C116.595 18.5499 119.875 17.2399 119.875 13.0099C119.875 11.9999 119.695 10.9199 119.215 9.9699C119.875 10.1499 120.585 10.1499 121.245 9.9699C121.845 9.7899 122.375 9.3699 122.675 8.8399C122.975 8.4199 123.095 7.8299 122.975 7.3499C122.675 6.4599 122.085 6.0999 121.245 6.3399L121.225 6.3099ZM113.305 18.0499C111.225 18.0499 109.965 17.2799 109.965 13.0499C109.965 10.0699 110.975 7.8699 113.305 7.8699C115.925 7.8699 116.645 9.8999 116.645 12.9899C116.585 17.3999 115.215 18.0499 113.305 18.0499Z" fill="black"/>
</g>
<defs>
<clipPath id="clip0_2500_105848">
<rect width="158.06" height="32" fill="white" transform="translate(0.935059 0.949951)"/>
</clipPath>
</defs>
</svg>
