<svg width="120" height="36" viewBox="0 0 120 36" fill="none" xmlns="http://www.w3.org/2000/svg">
<g opacity="0.5" clip-path="url(#clip0_2500_105868)">
<path d="M56.6987 9.26489H62.0987V26.6749H58.0987V14.9649L52.9787 26.6749L47.5987 14.9449V26.6749H43.8687V9.26489H49.1987L53.0487 18.2749L56.6987 9.26489Z" fill="black"/>
<path d="M64.0786 9.26488V26.6749H74.1286V23.7249H67.9786V19.2949H73.8786V16.3149H67.9786V12.3149H74.1286V9.25488H64.0786V9.26488Z" fill="black"/>
<path d="M89.1187 17.9748C89.1187 24.4548 95.8887 29.6448 103.019 26.1748V22.4448C97.5287 26.2848 92.7587 22.4448 92.8387 18.1248C92.8887 15.2548 94.8187 12.5348 98.5387 12.3248C100.369 12.2248 101.609 12.6748 103.019 14.0248V10.1448C97.8687 7.09482 89.1187 10.4548 89.1187 17.9848V17.9748Z" fill="black"/>
<path d="M104.659 26.6848H108.369V9.43481H104.659V26.6848Z" fill="black"/>
<path d="M113.009 17.3348L118.609 9.46484H114.279L108.729 17.3248L115.169 26.6748H119.419L113.009 17.3348Z" fill="black"/>
<path d="M75.8687 9.26489V26.6749H79.7786V17.3149L86.2387 26.6749H90.4087L85.2887 19.3649C87.6587 18.4649 88.4286 16.4849 88.4286 14.4949C88.4286 12.5049 86.7587 9.26489 82.7287 9.26489H75.8687ZM79.7786 12.1649H81.4887C84.3787 12.1649 84.5286 14.0549 84.5286 14.7549C84.5286 16.1049 83.3887 17.2449 81.9087 17.2449H79.7786V12.1649Z" fill="black"/>
<path d="M8.78861 9.26493C8.78861 4.45493 12.6886 0.554932 17.4986 0.554932C22.3086 0.554932 26.2086 4.45493 26.2086 9.26493H8.78861ZM8.78861 26.6849C8.78861 21.8749 12.6886 17.9749 17.4986 17.9749C12.6886 17.9749 8.78861 14.0749 8.78861 9.26493C3.97861 9.26493 0.0786133 13.1649 0.0786133 17.9749C0.0786133 22.7849 3.97861 26.6849 8.78861 26.6849ZM8.78861 26.6849C8.78861 31.4949 12.6886 35.3949 17.4986 35.3949C22.3086 35.3949 26.2086 31.4949 26.2086 26.6849H8.78861ZM17.4986 17.9749C22.3086 17.9749 26.2086 21.8749 26.2086 26.6849C31.0186 26.6849 34.9186 22.7849 34.9186 17.9749C34.9186 13.1649 31.0186 9.26493 26.2086 9.26493C26.2086 14.0749 22.3086 17.9749 17.4986 17.9749Z" fill="#5F5F5F"/>
</g>
<defs>
<clipPath id="clip0_2500_105868">
<rect width="119.35" height="34.84" fill="white" transform="translate(0.0786133 0.554932)"/>
</clipPath>
</defs>
</svg>
