<svg width="151" height="33" viewBox="0 0 151 33" fill="none" xmlns="http://www.w3.org/2000/svg">
<g opacity="0.8" clip-path="url(#clip0_2500_105783)">
<path d="M62.4023 7.34992V26.5499H59.0723V11.4799H59.0323L53.0723 26.5499H50.8523L44.7623 11.4799H44.7223V26.5499H41.6523V7.34992H46.4523L51.9623 21.5699H52.0523L57.8723 7.34992H62.4023ZM65.1623 8.81992C65.1623 8.28992 65.3423 7.83992 65.7423 7.48992C66.1423 7.12992 66.5823 6.95992 67.1223 6.95992C67.7023 6.95992 68.1923 7.13992 68.5423 7.48992C68.9023 7.84992 69.1223 8.28992 69.1223 8.81992C69.1223 9.34992 68.9423 9.79992 68.5423 10.1499C68.1423 10.5099 67.7023 10.6799 67.1223 10.6799C66.5423 10.6799 66.1023 10.4999 65.7423 10.1499C65.3823 9.74992 65.1623 9.30992 65.1623 8.81992ZM68.7623 12.7799V26.5599H65.5223V12.7699H68.7623V12.7799ZM78.5823 24.1999C79.0723 24.1999 79.6023 24.1099 80.1823 23.8399C80.7623 23.6199 81.2923 23.3099 81.7823 22.9499V25.9699C81.2523 26.2799 80.6723 26.4999 80.0023 26.6399C79.3323 26.7699 78.6223 26.8599 77.8223 26.8599C75.7823 26.8599 74.1323 26.2399 72.8923 24.9499C71.6023 23.6599 70.9823 22.0199 70.9823 20.0599C70.9823 17.8399 71.6523 16.0199 72.9423 14.5899C74.2323 13.1699 76.0523 12.4599 78.4523 12.4599C79.0723 12.4599 79.6923 12.5499 80.2723 12.6799C80.8923 12.8099 81.3823 13.0399 81.7423 13.2099V16.3199C81.2523 15.9599 80.7223 15.6499 80.2323 15.4799C79.7023 15.2999 79.1623 15.1699 78.6323 15.1699C77.3423 15.1699 76.3223 15.5699 75.5223 16.4099C74.7223 17.2499 74.3623 18.3699 74.3623 19.7899C74.3623 21.2099 74.7623 22.2799 75.5223 23.0299C76.2823 23.7899 77.3023 24.1899 78.5923 24.1899L78.5823 24.1999ZM90.9823 12.5599C91.2523 12.5599 91.4723 12.5599 91.6923 12.5999C91.9123 12.6399 92.0923 12.6899 92.2223 12.7299V16.0199C92.0423 15.8899 91.8223 15.7499 91.4623 15.6599C91.1023 15.5699 90.7523 15.4799 90.2623 15.4799C89.4623 15.4799 88.7923 15.8399 88.2623 16.4999C87.7323 17.1699 87.4223 18.1899 87.4223 19.6099V26.5399H84.1823V12.7699H87.4223V14.9499H87.4623C87.7723 14.1899 88.2223 13.6199 88.7923 13.1699C89.4123 12.7699 90.1223 12.5499 90.9723 12.5499L90.9823 12.5599ZM92.4023 19.8899C92.4023 17.6199 93.0723 15.7999 94.3123 14.4699C95.6023 13.1399 97.3823 12.4699 99.6423 12.4699C101.772 12.4699 103.462 13.0899 104.662 14.3799C105.862 15.6699 106.482 17.3999 106.482 19.5799C106.482 21.7599 105.812 23.5799 104.572 24.9099C103.282 26.2399 101.552 26.9099 99.3323 26.9099C97.1123 26.9099 95.5123 26.2899 94.2623 25.0399C93.0223 23.7499 92.3923 22.0199 92.3923 19.8799L92.4023 19.8899ZM95.7823 19.7599C95.7823 21.1799 96.0923 22.2899 96.7623 23.0499C97.4323 23.8099 98.3623 24.2099 99.5623 24.2099C100.762 24.2099 101.652 23.8499 102.272 23.0499C102.892 22.2899 103.202 21.1799 103.202 19.6699C103.202 18.1599 102.892 17.0899 102.272 16.2899C101.652 15.5299 100.712 15.1299 99.6023 15.1299C98.4023 15.1299 97.5123 15.5299 96.8423 16.3299C96.0823 17.1699 95.7723 18.2899 95.7723 19.7499L95.7823 19.7599ZM111.342 16.4299C111.342 16.8699 111.472 17.2699 111.782 17.5399C112.092 17.8099 112.712 18.1199 113.732 18.5199C115.022 19.0499 115.952 19.6299 116.442 20.2499C116.972 20.9199 117.242 21.6699 117.242 22.6099C117.242 23.8999 116.752 24.9199 115.732 25.7199C114.752 26.5199 113.382 26.8799 111.692 26.8799C111.112 26.8799 110.492 26.7899 109.782 26.6599C109.072 26.5299 108.492 26.3499 108.002 26.1299V22.9299C108.582 23.3299 109.242 23.6899 109.912 23.9099C110.582 24.1299 111.202 24.2699 111.782 24.2699C112.492 24.2699 113.072 24.1799 113.382 23.9599C113.732 23.7399 113.912 23.4299 113.912 22.9399C113.912 22.4999 113.732 22.1399 113.382 21.7799C113.022 21.4699 112.312 21.1099 111.342 20.7099C110.142 20.2199 109.302 19.6399 108.812 19.0199C108.322 18.3999 108.052 17.5999 108.052 16.6199C108.052 15.3799 108.542 14.3499 109.522 13.5499C110.502 12.7499 111.792 12.3499 113.342 12.3499C113.832 12.3499 114.362 12.3899 114.942 12.5299C115.522 12.6599 116.052 12.7999 116.452 12.9299V16.0899C116.012 15.8199 115.522 15.5599 114.942 15.3299C114.362 15.1099 113.792 15.0199 113.252 15.0199C112.632 15.0199 112.142 15.1499 111.832 15.3799C111.522 15.6899 111.342 15.9999 111.342 16.4499V16.4299ZM118.632 19.8999C118.632 17.6299 119.302 15.8099 120.542 14.4799C121.832 13.1499 123.612 12.4799 125.872 12.4799C128.002 12.4799 129.692 13.0999 130.892 14.3899C132.092 15.6799 132.712 17.4099 132.712 19.5899C132.712 21.7699 132.042 23.5899 130.802 24.9199C129.512 26.2499 127.782 26.9199 125.562 26.9199C123.342 26.9199 121.742 26.2999 120.492 25.0499C119.292 23.7599 118.622 22.0299 118.622 19.8899L118.632 19.8999ZM122.012 19.7699C122.012 21.1899 122.322 22.2999 122.992 23.0599C123.662 23.8199 124.592 24.2199 125.792 24.2199C126.992 24.2199 127.882 23.8599 128.502 23.0599C129.122 22.2999 129.432 21.1899 129.432 19.6799C129.432 18.1699 129.122 17.0999 128.502 16.2999C127.882 15.5399 126.942 15.1399 125.832 15.1399C124.632 15.1399 123.742 15.5399 123.072 16.3399C122.362 17.1799 122.002 18.2999 122.002 19.7599L122.012 19.7699ZM143.522 15.4599H138.672V26.5699H135.382V15.4399H133.072V12.7699H135.382V10.8599C135.382 9.43992 135.872 8.23992 136.802 7.29992C137.732 6.36992 138.932 5.91992 140.402 5.91992C140.802 5.91992 141.152 5.95992 141.472 5.95992C141.792 5.95992 142.052 6.04992 142.272 6.13992V8.93992C142.182 8.89992 141.962 8.80992 141.692 8.71992C141.422 8.62992 141.112 8.58992 140.762 8.58992C140.092 8.58992 139.562 8.80992 139.212 9.20992C138.852 9.60992 138.682 10.2799 138.682 11.0799V12.7199H143.532V9.60992L146.772 8.62992V12.7199H150.062V15.3899H146.772V21.8299C146.772 22.6699 146.952 23.2499 147.222 23.6099C147.532 23.9699 148.022 24.1399 148.692 24.1399C148.872 24.1399 149.092 24.0999 149.362 24.0099C149.632 23.9199 149.852 23.8299 150.032 23.6999V26.3699C149.812 26.4999 149.502 26.5899 149.012 26.6799C148.522 26.7699 148.082 26.8099 147.592 26.8099C146.212 26.8099 145.192 26.4499 144.522 25.7399C143.852 25.0299 143.502 23.9199 143.502 22.4499L143.542 15.4299L143.522 15.4599Z" fill="#494949"/>
<path d="M15.2024 0.949951H0.00244141V16.15H15.2024V0.949951Z" fill="#6F6F6F"/>
<path d="M32.0022 0.949951H16.8022V16.15H32.0022V0.949951Z" fill="#B7B7B7"/>
<path d="M15.2024 17.75H0.00244141V32.95H15.2024V17.75Z" fill="#A7A7A7"/>
<path d="M32.0022 17.75H16.8022V32.95H32.0022V17.75Z" fill="#B6B6B6"/>
</g>
<defs>
<clipPath id="clip0_2500_105783">
<rect width="150.04" height="32" fill="white" transform="translate(0.00244141 0.949951)"/>
</clipPath>
</defs>
</svg>
