<svg width="126" height="36" viewBox="0 0 126 36" fill="none" xmlns="http://www.w3.org/2000/svg">
<g opacity="0.5" clip-path="url(#clip0_2500_105792)">
<path d="M66.9196 9.53497C66.7496 9.74497 66.6496 9.98497 66.6496 10.385V21.635H66.5896C66.5896 21.635 60.4296 10.655 60.1396 10.155C59.9296 9.79497 59.6896 9.54497 59.3796 9.36497C59.0696 9.19497 58.7496 9.08497 58.1296 9.08497H56.0996C55.6296 9.08497 55.3296 9.24497 55.1196 9.49497C54.9496 9.70497 54.8496 9.94497 54.8496 10.345V26.285C54.8496 26.695 54.9496 26.925 55.1196 27.135C55.3296 27.385 55.6296 27.545 56.0996 27.545H57.2496C57.7196 27.545 58.0196 27.385 58.2296 27.135C58.3996 26.925 58.4996 26.685 58.4996 26.285V14.765H58.5596C58.5596 14.765 64.9496 26.085 65.2096 26.505C65.5696 27.095 66.1796 27.545 67.0396 27.545H69.0096C69.4796 27.545 69.7796 27.385 69.9896 27.135C70.1596 26.925 70.2596 26.685 70.2596 26.285V11.905H96.1396C96.3996 11.905 96.5996 11.835 96.7496 11.705C96.9096 11.555 96.9896 11.355 96.9896 11.065V9.97497C96.9896 9.67497 96.9196 9.47497 96.7496 9.33497C96.5996 9.21497 96.3996 9.13497 96.1396 9.13497H67.8996C67.4296 9.13497 67.1296 9.29497 66.9196 9.54497V9.53497ZM78.2196 13.795C73.9196 13.795 71.5096 17.155 71.5096 20.695C71.5096 24.475 74.0996 27.795 78.2496 27.795C80.3196 27.795 82.3496 27.015 83.5096 25.635C84.0196 25.045 84.4296 24.215 84.4296 23.705C84.4296 23.535 84.3896 23.385 84.2896 23.275C84.1896 23.155 84.0396 23.075 83.7796 23.075H81.7896C81.3896 23.075 81.1196 23.225 80.9196 23.525C80.3396 24.385 79.4996 24.825 78.2596 24.825C76.3996 24.825 75.1996 23.415 75.1096 21.865H83.7296C84.1096 21.865 84.3896 21.775 84.5696 21.595C84.7796 21.395 84.8796 21.115 84.8796 20.575C84.8796 18.955 84.3696 17.265 83.3096 15.975C82.2196 14.675 80.5596 13.795 78.2196 13.795ZM91.5096 13.795C88.1196 13.795 85.8896 15.405 85.8896 17.985C85.8896 18.905 86.2196 19.645 86.7696 20.225C87.3996 20.905 88.3096 21.375 89.6196 21.715L92.4596 22.435C93.2396 22.635 93.9296 22.865 93.9296 23.545C93.9296 24.595 92.8196 24.955 91.6296 24.955C91.0496 24.955 90.4396 24.845 89.9396 24.595C89.5896 24.425 89.2996 24.175 89.0896 23.835C88.8996 23.545 88.8396 23.335 88.5596 23.175C88.3896 23.075 88.1796 23.065 87.8896 23.065H86.3496C86.0196 23.065 85.8496 23.165 85.7396 23.305C85.6296 23.445 85.5896 23.635 85.5896 23.835C85.5896 24.335 85.7596 24.945 86.1696 25.505C87.1096 26.765 89.0796 27.785 91.5896 27.785C94.0996 27.785 97.4996 26.755 97.4996 23.435C97.4996 22.585 97.2496 21.845 96.7896 21.255C96.2096 20.495 95.3796 19.975 93.9696 19.615L91.1596 18.895C89.9996 18.595 89.4496 18.385 89.4496 17.665C89.4496 16.945 90.0696 16.415 91.5096 16.415C92.3496 16.415 93.1196 16.605 93.6196 17.125C94.0296 17.555 93.9496 17.785 94.2796 17.955C94.4796 18.055 94.6996 18.055 95.0496 18.055H96.4496C96.6696 18.055 96.8296 18.015 96.9596 17.885C97.0596 17.775 97.1196 17.605 97.1196 17.315C97.1196 16.675 96.6996 15.845 95.9596 15.205C94.9696 14.345 93.4096 13.785 91.5196 13.785L91.5096 13.795ZM99.2296 14.265H98.5396C98.2796 14.265 98.0796 14.335 97.9296 14.465C97.7696 14.615 97.6896 14.815 97.6896 15.105V15.955C97.6896 16.255 97.7596 16.455 97.9296 16.595C98.0796 16.715 98.2796 16.795 98.5396 16.795H99.2296V22.975C99.2296 24.565 99.6596 25.555 100.47 26.345C101.21 27.075 102.18 27.535 103.86 27.535H104.91C105.17 27.535 105.37 27.465 105.52 27.335C105.68 27.185 105.78 26.985 105.78 26.695V25.615C105.78 25.315 105.68 25.115 105.52 24.975C105.37 24.855 105.17 24.775 104.91 24.775H104.76C104.09 24.775 103.63 24.605 103.32 24.305C102.95 23.955 102.76 23.425 102.76 22.735V16.805H105.01C105.27 16.805 105.47 16.735 105.62 16.605C105.78 16.455 105.86 16.255 105.86 15.965V15.115C105.86 14.815 105.79 14.615 105.62 14.475C105.47 14.355 105.27 14.275 105.01 14.275H102.77V10.235C102.77 9.91497 102.67 9.67497 102.52 9.49497C102.33 9.27497 102.07 9.13497 101.69 9.13497H100.29C99.9096 9.13497 99.6496 9.27497 99.4596 9.49497C99.3096 9.68497 99.2096 9.91497 99.2096 10.235V14.275L99.2296 14.265ZM106.81 26.445C106.81 26.765 106.91 27.005 107.06 27.185C107.24 27.405 107.51 27.545 107.89 27.545H109.36C109.74 27.545 110 27.405 110.19 27.185C110.34 26.995 110.44 26.765 110.44 26.445V10.235C110.44 9.91497 110.34 9.67497 110.19 9.49497C110 9.27497 109.74 9.13497 109.36 9.13497H107.89C107.51 9.13497 107.25 9.27497 107.06 9.49497C106.91 9.68497 106.81 9.91497 106.81 10.235V26.445ZM75.1296 19.225C75.2896 17.705 76.4596 16.565 78.2296 16.565C79.9996 16.565 81.1696 17.705 81.3296 19.225H75.1396H75.1296ZM123.85 11.905C124.11 11.905 124.31 11.835 124.46 11.705C124.62 11.555 124.7 11.355 124.7 11.065V9.91497C124.7 9.46497 124.61 9.24497 124.46 9.08497C124.32 8.93497 124.1 8.84497 123.85 8.84497C123.65 8.84497 123.45 8.86497 123.12 8.90497L113.23 9.88497C112.95 9.90497 112.81 9.99497 112.71 10.105C112.6 10.225 112.55 10.395 112.55 10.615V11.255C112.55 11.505 112.6 11.615 112.69 11.715C112.8 11.835 112.96 11.905 113.19 11.905H123.86H123.85ZM118.39 13.805C114.09 13.805 111.67 17.165 111.67 20.705C111.67 24.485 114.26 27.805 118.41 27.805C120.48 27.805 122.51 27.025 123.67 25.645C124.18 25.055 124.59 24.225 124.59 23.715C124.59 23.545 124.55 23.395 124.45 23.285C124.35 23.165 124.2 23.085 123.94 23.085H121.94C121.54 23.085 121.27 23.235 121.07 23.535C120.49 24.395 119.64 24.835 118.41 24.835C116.55 24.835 115.35 23.425 115.26 21.875H123.91C124.29 21.875 124.57 21.785 124.75 21.605C124.96 21.405 125.06 21.125 125.06 20.585C125.06 18.965 124.55 17.275 123.49 15.985C122.4 14.685 120.71 13.805 118.37 13.805H118.39ZM115.31 19.235C115.47 17.715 116.64 16.575 118.41 16.575C120.18 16.575 121.34 17.715 121.51 19.235H115.32H115.31Z" fill="black"/>
<path d="M40.8696 12.055C37.6596 7.27499 34.8496 5.66499 34.0496 4.90499C33.1796 4.06499 32.5196 3.12499 32.0896 2.66499C31.1496 1.63499 29.9396 0.36499 27.9396 0.36499C25.9396 0.36499 24.7296 1.62499 24.3196 2.70499C24.1996 3.01499 24.0996 3.39499 24.0196 3.53499C23.8296 3.84499 22.9796 5.30499 22.6196 5.87499H24.2096L23.4296 7.34499C24.3296 7.14499 24.9796 7.00499 25.8396 7.00499C26.6096 7.00499 27.1596 7.18499 27.3996 7.66499C27.8496 8.56499 27.8496 11.275 28.6096 13.315C29.3196 15.235 31.0396 17.115 32.9796 18.555C33.0096 18.575 33.0296 18.585 33.0696 18.585C33.1596 18.585 33.2296 18.515 33.2296 18.445C33.2296 18.395 33.2096 18.355 33.1696 18.315C31.5496 16.695 30.2296 14.905 29.5196 12.935C28.8196 11.025 28.9296 8.33499 28.3196 7.13499C27.9096 6.34499 27.0496 6.13499 26.2596 6.13499C25.6196 6.13499 25.0296 6.26499 24.7496 6.32499L25.4496 5.14499H24.2696C24.5196 4.70499 24.7796 4.30499 24.9096 4.05499C25.0196 3.84499 25.0696 3.58499 25.1996 3.23499C25.6496 2.10499 26.6396 1.38499 27.9296 1.38499C29.5496 1.38499 30.4996 2.42499 31.4396 3.47499C31.8696 3.95499 32.5796 4.96499 33.3996 5.71499C33.9596 6.23499 35.0296 6.80499 36.6796 8.50499C37.6296 9.48499 38.7296 10.765 39.8896 12.465C44.0496 18.555 46.7896 23.925 48.3096 28.115L48.2796 28.135C43.9096 25.165 40.1296 22.365 37.0796 18.915C34.9196 16.455 33.0396 13.615 31.3996 9.98499C31.2896 9.74499 31.1896 9.51499 31.0896 9.28499C31.0496 9.19499 30.9996 9.16499 30.9296 9.16499C30.8396 9.16499 30.7796 9.22499 30.7796 9.31499C30.7796 9.40499 30.8196 9.61499 30.9196 10.035C31.7896 13.795 34.1996 17.165 36.7796 19.965C39.3496 22.745 42.2496 25.145 44.6396 26.885L46.4996 32.215C46.5396 32.345 46.5896 32.485 46.5896 32.615C46.5896 32.705 46.5596 32.785 46.4996 32.835C46.4496 32.885 46.3796 32.915 46.2196 32.915H45.6596C45.4196 32.915 45.3196 32.875 45.2396 32.815C45.1496 32.745 45.0896 32.645 45.0496 32.525C44.8896 32.025 43.8996 29.225 43.7096 28.655C43.6696 28.555 43.6096 28.515 43.5496 28.515C43.4596 28.515 43.3996 28.585 43.3996 28.665C43.3996 28.735 43.4296 28.815 43.4696 29.055C43.7196 30.335 44.0096 31.765 44.1296 32.305C44.1796 32.555 44.2396 32.785 44.2396 32.955C44.2396 33.105 44.2096 33.195 44.0796 33.325L43.4996 33.915C43.3596 34.055 43.2796 34.085 43.1696 34.085C43.0296 34.085 42.9196 33.995 42.8696 33.745C42.2196 30.685 41.2196 26.895 40.9696 25.845C40.9096 25.615 40.8696 25.485 40.7296 25.485C40.6096 25.485 40.5696 25.575 40.5696 25.675C40.5696 25.755 40.5896 25.845 40.5996 25.915C40.7596 27.005 41.3796 30.955 42.0696 34.565C42.1896 35.185 42.4196 35.525 42.9596 35.525C43.1996 35.525 43.4296 35.435 43.6496 35.225C43.9996 34.875 44.1096 34.775 44.5296 34.365C44.8296 34.075 45.0396 33.955 45.5596 33.955H46.8396C47.1396 33.955 47.3096 33.875 47.4496 33.735C47.5896 33.605 47.6696 33.425 47.6696 33.165C47.6696 32.905 47.5996 32.685 47.5096 32.415C47.1796 31.535 46.1296 28.565 45.8196 27.725L45.8496 27.705C46.9296 28.525 48.4996 29.565 49.1896 29.565C49.4096 29.565 49.5396 29.475 49.5396 29.135C49.5396 27.545 46.8996 21.025 40.8796 12.045L40.8696 12.055Z" fill="black"/>
<path d="M11.2797 2.03497C11.4597 1.63497 11.8597 1.36497 12.3297 1.36497C12.9797 1.36497 13.4897 1.86497 13.4897 2.52497C13.4897 2.91497 13.3097 3.24497 13.0197 3.45497C13.0797 3.67497 13.1197 3.87497 13.1197 4.06497C13.1197 4.78497 12.6897 5.29497 11.8997 5.56497C11.7997 6.00497 11.6097 6.40497 11.2997 6.69497C10.7797 7.19497 10.2597 7.19497 10.2597 7.40497C10.2597 7.51497 10.3397 7.58497 10.5497 7.58497C11.5097 7.58497 12.4497 7.05497 12.5597 6.16497C13.4697 5.85497 14.0297 4.93497 14.0297 4.20497C14.0297 4.01497 14.0097 3.85497 13.9397 3.69497C14.1897 3.45497 14.4797 3.03497 14.4797 2.42497C14.4797 1.89497 14.2497 1.34497 13.8297 0.954971C13.4697 0.604971 12.9597 0.364971 12.3597 0.364971C11.4997 0.364971 10.9397 0.834971 10.6197 1.28497C9.67967 1.28497 8.45967 2.32497 8.45967 3.81497H8.32967C8.23967 3.29497 7.70967 2.95497 7.25967 2.92497C6.89967 1.83497 6.07967 0.904971 4.72967 0.904971C4.57967 0.904971 4.38967 0.904971 4.21967 0.934971C3.81967 0.574971 3.37967 0.344971 2.76967 0.344971C1.61967 0.364971 0.659668 1.30497 0.659668 2.49497C0.659668 3.23497 0.999668 3.74497 1.62967 4.19497C1.62967 4.19497 1.62967 4.28497 1.62967 4.33497C1.62967 5.28497 2.65967 6.76497 4.19967 6.76497C4.19967 7.00497 4.49967 7.33497 4.83967 7.39497V7.51497H4.70967C2.59967 7.51497 1.69967 8.53497 1.69967 9.21497C1.06967 9.47497 0.669668 10.175 0.669668 10.815C0.669668 12.095 1.60967 13.015 2.84967 13.015C3.25967 13.015 3.68967 12.855 3.97967 12.625C4.19967 12.705 4.46967 12.745 4.75967 12.745C5.35967 12.745 6.01967 12.535 6.47967 11.855C6.54967 11.855 6.60967 11.855 6.67967 11.855C7.43967 11.855 8.08967 11.355 8.43967 10.695C8.52967 10.535 8.55967 10.405 8.55967 10.305C8.55967 10.205 8.51967 10.135 8.41967 10.135C8.29967 10.135 8.27967 10.245 8.06967 10.445C7.58967 10.885 6.84967 11.045 6.08967 11.045C5.71967 11.585 5.25967 11.875 4.73967 11.875C4.34967 11.875 4.04967 11.775 3.73967 11.565C3.48967 11.845 3.17967 11.955 2.87967 11.955C2.19967 11.955 1.71967 11.485 1.71967 10.795C1.71967 10.315 2.02967 9.88497 2.45967 9.71497C2.53967 8.86497 3.44967 8.28497 4.58967 8.28497C4.73967 8.28497 4.87967 8.28497 5.03967 8.31497C5.20967 8.03497 5.62967 7.74497 6.20967 7.66497C6.32967 7.64497 6.42967 7.63497 6.48967 7.60497C6.55967 7.56497 6.58967 7.50497 6.58967 7.42497C6.58967 7.35497 6.55967 7.29497 6.49967 7.25497C6.43967 7.22497 6.33967 7.20497 6.21967 7.17497C5.67967 7.07497 5.02967 6.73497 4.69967 5.91497C3.39967 5.91497 2.43967 4.87497 2.43967 3.70497V3.62497C2.00967 3.45497 1.71967 3.03497 1.71967 2.54497C1.71967 1.89497 2.22967 1.38497 2.86967 1.38497C3.25967 1.38497 3.58967 1.57497 3.80967 1.85497C3.98967 1.80497 4.19967 1.78497 4.39967 1.78497C5.36967 1.78497 6.39967 2.39497 6.59967 3.58497C7.83967 3.69497 8.12967 4.74497 8.20967 5.18497C8.24967 5.40497 8.28967 5.59497 8.42967 5.59497C8.58967 5.59497 8.61967 5.42497 8.66967 5.18497C8.75967 4.74497 8.92967 4.39497 9.25967 4.11497C9.25967 2.98497 10.0997 2.01497 11.2997 2.01497L11.2797 2.03497Z" fill="black"/>
<path d="M13.7898 8.79504C13.3798 9.37504 13.0898 9.65504 12.1698 10.745C10.9598 12.185 10.3198 13.345 9.25977 15.935C9.42977 15.915 9.67977 15.905 9.95977 15.905C10.0998 15.905 10.2098 15.905 10.3898 15.905L10.5198 15.625C11.1198 14.345 11.9198 12.625 13.0398 11.295L13.4298 10.835C14.5798 9.48504 15.2998 8.67504 15.7498 6.83504C15.9098 6.18504 16.0298 5.59504 16.4698 5.17504C16.8698 4.79504 17.3698 4.63504 17.8698 4.63504C18.2998 4.63504 18.6198 4.73504 19.0898 4.93504C19.5098 5.11504 19.6698 5.15504 20.1198 5.15504C20.2798 5.15504 20.3898 5.15504 20.4898 5.13504L19.8898 5.94504L20.7098 6.52504C19.6798 6.82504 19.1398 7.81504 18.9598 8.27504C18.9298 8.36504 18.9098 8.43504 18.9098 8.49504C18.9098 8.56504 18.9398 8.63504 19.0498 8.63504C19.1598 8.63504 19.2498 8.54504 19.3898 8.37504C19.8898 7.77504 20.2898 7.35504 22.1298 6.78504L20.8298 5.80504L21.8098 4.36504H20.8898C20.2998 4.36504 19.9198 4.36504 19.4098 4.12504C18.7198 3.80504 18.3698 3.66504 17.7598 3.66504C17.0098 3.66504 16.3298 3.93504 15.7698 4.44504C15.1198 5.03504 14.9198 5.83504 14.6898 6.70504C14.5098 7.37504 14.2898 8.11504 13.8098 8.79504H13.7898Z" fill="black"/>
<path d="M15.7698 14.6649C15.2798 15.3249 14.6098 16.1949 14.0898 17.1249C14.2498 17.2049 14.7998 17.4949 14.9898 17.5949C15.5798 16.6949 16.4098 15.5949 16.9498 14.7549C17.4398 13.9949 17.6398 13.6649 17.6698 12.6549C17.6698 12.4849 17.6698 12.3149 17.6998 12.1549C17.7398 11.6249 17.8798 11.0949 18.3798 10.6049C18.7498 10.2349 19.2898 10.0449 19.8198 10.0449C20.3498 10.0449 20.6398 10.1949 21.0898 10.1949C21.4098 10.1949 21.6398 10.1149 21.8498 10.0449L22.0098 9.98487L21.6098 10.9349L22.5398 11.3149C21.9498 11.6849 20.6398 13.2849 20.6398 15.1649C20.6398 15.8449 20.7398 16.4749 20.8898 17.0349C20.9098 17.0949 20.9398 17.1549 21.0398 17.1549C21.1298 17.1549 21.1898 17.1049 21.1998 17.0049V16.8049C21.2298 16.2249 21.2798 15.3149 21.5098 14.4949C21.8998 13.1149 22.9398 11.8249 23.9798 11.2049L22.4998 10.5549L23.1398 8.99487L22.4398 9.14487C22.0198 9.23487 21.7098 9.30487 21.3398 9.30487C21.0998 9.30487 20.8198 9.27487 20.4998 9.19487C20.2498 9.13487 19.9798 9.08487 19.5998 9.08487C18.9198 9.08487 18.1898 9.34487 17.6898 9.82487C16.7798 10.6949 16.7198 11.6349 16.6598 12.4749C16.5798 13.5849 16.3798 13.8649 15.7698 14.6749V14.6649Z" fill="black"/>
<path d="M37.8898 15.185C37.8298 15.105 37.7798 15.075 37.7098 15.075C37.6098 15.075 37.5498 15.145 37.5498 15.225C37.5498 15.345 37.6398 15.495 37.8498 15.855C38.4998 16.965 39.3198 18.085 40.3098 19.135C41.3898 20.285 42.6498 21.345 44.0098 22.305L44.4298 22.595C44.4898 22.635 44.5298 22.665 44.5898 22.665C44.6798 22.665 44.7398 22.575 44.7398 22.505C44.7398 22.465 44.7198 22.415 44.6698 22.375C43.4098 21.225 42.0598 19.835 40.7898 18.485C39.7998 17.425 38.7798 16.305 37.8898 15.175V15.185Z" fill="black"/>
<path d="M10.1497 11.2849C10.2797 11.0649 10.6697 10.5449 10.8197 10.3849C10.1597 9.04487 9.06971 7.75487 8.59971 7.24487L8.19971 7.63487C8.65971 8.29487 9.41971 9.58487 10.1497 11.2849Z" fill="black"/>
<path d="M3.82975 3.50509C3.74975 3.43509 3.73975 3.39509 3.73975 3.34509C3.73975 3.28509 3.77975 3.21509 3.87975 3.21509C3.90975 3.21509 3.94975 3.21509 3.98975 3.24509C4.62975 3.50509 5.16975 3.80509 5.64975 4.17509C6.04975 4.48509 6.44975 4.86509 6.83975 5.32509L6.47975 5.73509C6.02975 5.36509 4.57975 4.14509 3.82975 3.51509V3.50509Z" fill="black"/>
<path d="M9.93973 6.3951L9.46973 6.1151C9.76973 5.3951 10.1397 4.7451 10.5797 4.2551C10.8897 3.9051 11.1797 3.6151 11.5097 3.3351C11.5897 3.2751 11.6297 3.2251 11.7097 3.2251C11.7997 3.2251 11.8597 3.2951 11.8597 3.3651C11.8597 3.3951 11.8397 3.4451 11.8097 3.4951C11.2797 4.3151 10.2597 5.9351 9.93973 6.4051V6.3951Z" fill="black"/>
<path d="M4.09975 10.3949C3.98975 10.4349 3.93975 10.4649 3.87975 10.4649C3.78975 10.4649 3.73975 10.3849 3.73975 10.3249C3.73975 10.2649 3.76975 10.2349 3.82975 10.1749C4.88975 9.34493 5.81975 9.02493 7.10975 8.80493L7.25975 9.32493L4.10975 10.3949H4.09975Z" fill="black"/>
<path d="M26.2095 3.70498C26.2095 3.40498 26.3695 2.85498 26.9295 2.85498C27.1195 2.85498 27.2995 2.89498 27.4495 2.96498C27.6595 3.05498 27.7895 3.19498 27.7895 3.34498C27.7895 3.50498 27.6295 3.65498 27.3995 3.84498C27.1595 4.04498 26.8495 4.22498 26.5995 4.22498C26.2995 4.22498 26.2095 3.93498 26.2095 3.69498V3.70498Z" fill="black"/>
<path d="M17.4595 6.22507C17.4595 5.85507 17.6795 5.44507 18.1095 5.44507C18.2995 5.44507 18.5195 5.52507 18.6895 5.67507C18.7795 5.76507 18.8295 5.85507 18.8295 5.95507C18.8295 6.16507 18.6295 6.35507 18.3995 6.49507C18.2195 6.59507 18.0295 6.66507 17.8695 6.66507C17.5995 6.66507 17.4595 6.49507 17.4595 6.21507V6.22507Z" fill="black"/>
<path d="M19.4795 11.5349C19.4795 11.4449 19.4795 11.3449 19.5195 11.2449C19.5895 11.0249 19.7395 10.8049 20.0995 10.8049C20.2595 10.8049 20.4395 10.8449 20.5895 10.9549C20.7195 11.0449 20.7695 11.1549 20.7695 11.2649C20.7695 11.6349 20.1495 12.0649 19.8395 12.0649C19.6195 12.0649 19.4795 11.8449 19.4795 11.5349Z" fill="black"/>
<path d="M16.0897 22.4149C14.9297 22.4149 14.4097 21.8649 14.4097 21.1649C14.4097 19.9449 16.5597 18.7449 18.4897 18.0049L18.9897 18.6549C17.7997 19.1249 15.3997 20.1449 15.3997 21.0249C15.3997 21.3349 15.5797 21.5549 16.2997 21.5549C17.5597 21.5549 18.9097 20.9449 20.1597 20.3349C20.2497 20.2949 20.3697 20.2449 20.4697 20.2449C20.6297 20.2449 20.7397 20.2949 20.8597 20.4649L21.0697 20.7449C19.6097 21.5449 17.7897 22.4049 16.0897 22.4049V22.4149Z" fill="black"/>
<path d="M19.2898 22.7449C18.1498 23.3849 16.9698 23.8049 15.9298 23.8049C14.7698 23.8049 13.7298 23.3049 12.8698 22.0049C12.5098 21.4549 12.2198 20.7649 11.8798 20.1549C11.4698 19.4349 11.0198 19.0449 10.2298 19.0449C9.50982 19.0449 8.81982 19.3349 8.06982 19.6549L8.09982 19.8149C8.15982 20.0849 8.25982 20.2749 8.50982 20.2749C8.61982 20.2749 8.72982 20.2249 8.79982 20.2049C9.20982 20.0749 9.50982 19.9649 9.93982 19.9649C10.5898 19.9649 10.8998 20.3449 11.3398 21.2749L11.4998 21.6149C11.0498 21.7749 9.99982 21.8449 9.21982 21.8449H8.84982L8.90982 22.2149C8.93982 22.3749 8.99982 22.4949 9.12982 22.5649C9.27982 22.6449 9.50982 22.6549 9.89982 22.6549C10.8798 22.6549 11.5998 22.5349 12.0098 22.4349C13.0698 24.0149 14.5298 24.6149 15.9298 24.6149C17.1298 24.6149 18.3398 24.1749 19.5098 23.5349L19.2898 22.7549V22.7449Z" fill="black"/>
<path d="M20.4698 23.1351L20.2598 22.3451C22.0298 21.3851 23.6598 20.6251 26.2398 20.3751C26.2898 21.3651 26.2198 22.6151 26.9598 22.6151C27.6298 22.6151 29.0998 20.8851 30.7898 18.7151C30.9498 18.8651 31.1898 19.0151 31.4198 19.1851L30.9898 19.7451C29.3398 21.8651 27.9398 23.6751 26.7798 23.6751C25.6998 23.6751 25.2998 22.4051 25.2798 21.4551C23.6298 21.6151 22.0798 22.1751 20.4698 23.1351Z" fill="black"/>
<path d="M43.2696 5.83503C42.5996 5.83503 42.4096 5.46503 42.4096 4.93503C42.4096 3.84503 43.0896 2.28503 43.5196 1.40503H42.4796C41.9396 2.45503 39.7996 5.82503 38.6396 7.22503L39.2996 7.93503C39.9196 7.24503 40.5996 6.07503 41.3396 4.91503H41.4796C41.4796 4.97503 41.4796 5.04503 41.4796 5.10503C41.4796 6.07503 41.9796 6.80503 43.2096 6.80503C43.9696 6.80503 45.1596 6.42503 46.2796 6.04503C47.2096 5.72503 48.0597 5.39503 48.4897 5.27503V4.24503C48.0097 4.39503 47.0196 4.76503 46.0096 5.12503C44.9396 5.49503 43.8896 5.83503 43.2796 5.83503H43.2696Z" fill="black"/>
<path d="M45.5698 8.95496C46.5998 8.51496 48.4598 7.77496 49.5298 7.38496V6.33496C47.3798 7.12496 43.6198 8.68496 41.0498 10.085C41.1198 10.175 41.5698 10.795 41.6198 10.875C42.7098 10.425 43.6798 10.135 44.5598 10.135C45.7898 10.135 46.7998 10.135 48.4898 9.73496V8.94496C47.5398 9.11496 46.5298 9.32496 45.8798 9.32496C45.4898 9.32496 45.3798 9.27496 45.3798 9.14496C45.3798 9.06496 45.4298 9.01496 45.5798 8.95496H45.5698Z" fill="black"/>
<path d="M23.4896 13.8049L23.0796 14.5949H27.4796L27.1496 13.8049H23.4896Z" fill="black"/>
<path d="M7.61965 18.535C8.08965 18.535 8.45965 18.375 8.82965 18.235C9.16965 18.095 9.51965 17.955 9.97965 17.955C11.0796 17.955 12.4396 18.485 13.6396 18.995C13.7096 19.025 13.7896 19.035 13.8596 19.035C14.0496 19.035 14.1996 18.945 14.2896 18.765L14.4496 18.485C13.1296 17.715 11.0296 16.895 9.92965 16.895C9.42965 16.895 9.06965 17.025 8.71965 17.165C8.32965 17.325 7.99965 17.485 7.63965 17.485C6.76965 17.485 4.53965 16.625 4.53965 15.785C4.53965 14.805 8.08965 14.425 8.47965 14.425L8.82965 13.625C6.24965 13.625 3.17965 14.525 3.17965 15.725C3.17965 16.065 3.37965 16.245 3.37965 16.565C3.37965 16.995 3.17965 17.285 3.17965 17.775C3.17965 18.095 3.36965 18.495 3.58965 18.855C3.82965 19.225 4.11965 19.465 4.11965 19.775C4.11965 20.005 3.96965 20.285 3.96965 20.825C3.96965 21.985 4.62965 22.695 5.92965 24.085L6.18965 24.365C5.11965 24.775 3.12965 25.645 2.65965 25.835C1.04965 26.505 0.639648 27.325 0.639648 28.615C0.639648 29.115 0.639648 29.685 0.669648 30.195H0.999648C1.64965 30.195 1.71965 29.805 1.71965 29.435C1.71965 29.185 1.71965 28.905 1.71965 28.585C1.71965 27.875 1.75965 27.235 2.90965 26.715C3.37965 26.505 5.65965 25.575 7.35965 24.855C7.85965 24.635 8.31965 24.455 8.83965 24.455C9.41965 24.455 10.0796 24.705 10.9096 25.195C11.6096 25.605 12.3396 26.165 12.9196 26.815L13.6496 26.255C13.0196 25.515 12.1496 24.855 11.2796 24.335C10.4096 23.815 9.62965 23.515 8.97965 23.515C8.69965 23.515 8.45965 23.565 8.25965 23.615C8.02965 23.675 7.80965 23.745 7.53965 23.745C7.21965 23.745 6.94965 23.665 6.56965 23.215C6.41965 23.055 5.48965 21.995 5.28965 21.685C5.19965 21.535 5.01965 21.245 5.01965 20.905C5.01965 20.755 5.04965 20.585 5.12965 20.435C5.92965 21.055 6.91965 21.435 8.12965 21.585L7.96965 20.765C6.23965 20.305 4.38965 18.785 4.38965 17.805C4.38965 17.595 4.43965 17.455 4.51965 17.275C5.18965 17.895 6.76965 18.545 7.61965 18.545V18.535Z" fill="black"/>
<path d="M20.0298 18.6951C21.1198 17.9251 22.2398 17.8451 23.1398 17.8451C23.6798 17.8451 24.3198 17.9251 24.9898 18.0051C25.5298 18.0751 26.0198 18.1251 26.6098 18.1251C27.7898 18.1251 28.9798 17.6951 29.4998 17.4651C29.6498 17.6451 29.8998 17.8851 30.0998 18.0651C29.8498 18.2251 28.2598 19.0851 26.6398 19.0851C25.9198 19.0851 25.2398 18.9951 24.6598 18.9251C24.1398 18.8551 23.5798 18.7951 23.0398 18.7951C22.4498 18.7951 21.2498 18.9651 20.5098 19.3251L20.0398 18.7051L20.0298 18.6951Z" fill="black"/>
<path d="M36.0296 21.7649C34.7396 24.4849 32.7696 26.4749 30.7596 27.6149C29.7996 28.1549 28.9396 28.5149 27.0796 28.5149H23.0496C21.6096 28.5149 20.7096 28.7049 19.9996 28.8849C19.2396 29.0849 18.7596 29.2849 17.9896 29.2849C16.8496 29.2849 15.7996 28.7249 15.2896 28.1949L16.2396 27.4449L15.7696 26.8149C15.4896 27.0149 12.1196 29.5049 11.4196 30.0649L11.3796 30.0349C11.3996 29.8649 11.3996 29.7049 11.3996 29.5549C11.3996 27.6549 10.5196 27.2049 9.18957 26.6649L8.27957 27.1949C10.1196 27.8049 10.5696 28.2949 10.5696 29.6649C10.5696 30.7549 10.1796 31.1849 9.61957 31.5149C9.03957 31.8549 8.32957 32.0049 7.69957 32.0049C7.42957 32.0049 7.30957 32.0549 7.21957 32.1549C7.11957 32.2549 7.05957 32.4149 7.05957 32.6249V32.9249H7.27957C8.42957 32.9249 9.49957 32.7449 10.6796 31.8249L14.4996 28.8449C15.0396 29.4649 16.4096 30.3249 18.0296 30.3249C18.9396 30.3249 19.5296 30.1049 20.3696 29.8849C21.0196 29.7249 21.6596 29.5749 23.0596 29.5749H27.0996C29.1696 29.5749 30.1696 29.1449 31.2696 28.5249C33.6696 27.1849 35.7096 24.9049 36.8596 22.2949C36.5596 22.1049 36.2696 21.9349 36.0296 21.7749V21.7649Z" fill="black"/>
<path d="M29.5399 25.005C30.5799 23.335 31.5099 21.855 33.7999 20.645C33.5599 20.495 33.2099 20.275 33.0299 20.155C32.1399 20.545 31.2599 21.315 30.5099 22.105C28.7899 23.895 28.9399 24.935 27.1199 25.635C26.6599 25.805 26.0999 25.995 25.3899 26.165C24.9699 24.865 23.9099 23.575 22.7899 23.575C22.0099 23.575 21.1199 23.975 20.0799 24.435C18.8699 24.965 17.7499 25.585 17.3999 25.815L17.8699 26.455C18.2299 26.255 19.2699 25.735 20.3199 25.295C21.2299 24.905 22.0399 24.585 22.5999 24.585C23.4899 24.585 24.0699 25.595 24.3799 26.405C23.2199 26.685 21.2999 26.745 20.7299 26.745C20.4599 26.745 20.3699 26.785 20.2699 26.865C20.1799 26.945 20.1099 27.085 20.0699 27.265L19.9999 27.555H20.6199C23.8399 27.555 26.8899 27.045 28.8399 25.855C29.1199 25.935 29.3599 25.985 29.6699 25.985C30.7899 25.985 31.9499 25.375 32.6699 24.815C32.9299 24.615 32.9899 24.435 32.9899 24.235C32.9899 24.145 32.9899 24.055 32.9699 23.965L32.9399 23.625C31.9099 24.445 31.0399 25.055 29.9799 25.055C29.7899 25.055 29.6499 25.035 29.5399 25.005Z" fill="black"/>
</g>
<defs>
<clipPath id="clip0_2500_105792">
<rect width="124.42" height="35.17" fill="white" transform="translate(0.659668 0.36499)"/>
</clipPath>
</defs>
</svg>
