<svg width="75" height="56" viewBox="0 0 75 56" fill="none" xmlns="http://www.w3.org/2000/svg">
<g opacity="0.6" clip-path="url(#clip0_2500_105819)">
<path d="M74.2038 24.0499H47.3638V17.1799H74.2038V24.0499Z" fill="#909090"/>
<path d="M70.724 24.0501H47.374V6.87012H70.724V24.0501Z" fill="#B9B9B9"/>
<path d="M61.074 24.05H47.374V0H61.074V24.05Z" fill="#A1A1A1"/>
<path d="M63.774 24.0499H47.374V2.67993H63.774V24.0499Z" fill="#BEBEBE"/>
<path d="M47.3638 2.67993V24.0399H61.0738V2.67993H47.3638Z" fill="#7D7D7D"/>
<path d="M33.624 24.05H47.364V27.48H33.624V24.05Z" fill="#171717"/>
<path d="M47.3638 6.86011V24.0401H63.7738V6.86011H47.3638Z" fill="#929292"/>
<path d="M47.3638 6.86011V24.0401H61.0738V6.86011H47.3638Z" fill="#656565"/>
<path d="M55.944 24.05H47.374V13.73H55.944V24.04V24.05Z" fill="#474747"/>
<path d="M47.3638 17.1799V24.0399H70.7238V17.1799H47.3638Z" fill="#636363"/>
<path d="M47.3638 17.1799V24.0399H63.7738V17.1799H47.3638Z" fill="#505050"/>
<path d="M47.3638 17.1799V24.0399H61.0738V17.1799H47.3638Z" fill="#353535"/>
<path d="M47.3638 17.1799V24.0399H55.9438V17.1799H47.3638Z" fill="#171717"/>
<path d="M50.3538 36.9799C48.0138 37.3999 46.7638 39.1599 46.7638 42.2299C46.7638 45.2999 48.4238 47.4299 50.8638 47.4299C52.0638 47.4299 53.0938 47.0099 55.2838 45.9199V48.4699C52.6338 49.7199 51.0738 50.0299 48.9938 50.0299C46.6538 50.0299 44.9938 49.4599 43.6938 48.0599C42.3438 46.7099 41.6138 44.9399 41.6138 42.9199C41.6138 38.4999 44.9438 35.4399 49.7738 35.4399C52.9438 35.4399 55.1738 36.9499 55.1738 39.0799C55.1738 40.4799 54.1338 41.4699 52.6238 41.4699C51.8438 41.4699 51.2238 41.2099 50.3338 40.7399" fill="black"/>
<path d="M38.6638 42.9099C40.7938 40.2599 41.5738 39.1699 41.5738 37.8699C41.5738 36.5699 40.5338 35.4299 39.0838 35.4299C38.2538 35.4299 37.4738 35.8999 37.1138 36.3099V41.7699L33.6338 46.4499V35.8499H30.3038L24.7938 44.9399V35.8499H22.9238L17.8838 36.9899V38.2899L20.6338 38.5499V49.8299H24.1138L29.4138 41.0999V49.8299H33.3138" fill="black"/>
<path d="M7.33383 48.05H8.11383C10.9238 48.05 12.4738 46.34 12.4738 42.91C12.4738 40.05 11.2238 38.49 8.88383 38.49C8.57383 38.49 8.10383 38.54 7.32383 38.7V48.05H7.33383ZM7.33383 54.18L9.62383 54.7V56C3.63049 56 0.633828 56 0.633828 56V54.7L2.71383 54.18V38.49H0.423828V37.19L5.88383 35.53H7.33383V37.4C9.88383 35.84 10.7638 35.58 12.1138 35.58C15.1238 35.58 17.4138 38.39 17.4138 42.28C17.4138 46.75 14.3438 49.81 9.67383 49.81C9.15383 49.81 8.27383 49.76 7.33383 49.71" fill="black"/>
</g>
<defs>
<clipPath id="clip0_2500_105819">
<rect width="73.78" height="56" fill="white" transform="translate(0.423828)"/>
</clipPath>
</defs>
</svg>
