<svg width="118" height="37" viewBox="0 0 118 37" fill="none" xmlns="http://www.w3.org/2000/svg">
<g opacity="0.5" clip-path="url(#clip0_2500_105789)">
<path d="M91.1793 30.5181C91.1793 32.6279 89.7166 34.4318 87.6107 34.4318C87.2722 34.449 86.9338 34.3945 86.6177 34.2719C86.3017 34.1494 86.0151 33.9614 85.7767 33.7204C85.5383 33.4794 85.3535 33.1908 85.2343 32.8735C85.1152 32.5561 85.0644 32.2172 85.0852 31.8789C85.0852 29.7808 86.548 27.9651 88.6538 27.9651C90.3166 27.9651 91.1793 29.1573 91.1793 30.5181ZM86.5911 31.8396C86.5911 32.6906 87.0342 33.2867 87.7989 33.2867C88.9048 33.2867 89.6421 31.7612 89.6421 30.5298C89.6421 29.8945 89.3503 29.1063 88.4617 29.1063C87.2813 29.1063 86.595 30.6828 86.595 31.8396H86.5911ZM101.219 30.5181C101.219 32.6279 99.7558 34.4318 97.6499 34.4318C97.3114 34.449 96.973 34.3945 96.657 34.2719C96.3409 34.1494 96.0543 33.9614 95.8159 33.7204C95.5775 33.4794 95.3927 33.1908 95.2735 32.8735C95.1544 32.5561 95.1036 32.2172 95.1244 31.8789C95.1244 29.7808 96.5872 27.9651 98.6931 27.9651C100.356 27.9651 101.219 29.1573 101.219 30.5181ZM96.6303 31.8396C96.6303 32.6906 97.0734 33.2867 97.8382 33.2867C98.944 33.2867 99.6813 31.7612 99.6813 30.5298C99.6813 29.8945 99.3895 29.1063 98.5009 29.1063C97.3205 29.1063 96.6342 30.6828 96.6342 31.8396H96.6303ZM93.348 26.0749L91.7872 34.271H93.2617L94.8342 26.0749H93.348ZM69.5048 27.973C68.9856 27.9698 68.471 28.0703 67.9912 28.2687C67.5114 28.4671 67.0761 28.7594 66.7108 29.1284C66.3455 29.4973 66.0576 29.9355 65.8639 30.4173C65.6703 30.899 65.5749 31.4146 65.5833 31.9338C65.5833 33.4083 66.5362 34.3965 68.0852 34.3965C68.7138 34.4101 69.3373 34.281 69.9087 34.0189L70.1527 32.7365C69.649 33.0353 69.0755 33.1962 68.4899 33.2032C67.6664 33.2032 67.1291 32.6816 67.1291 31.7561C67.1291 30.462 68.0311 29.1522 69.4546 29.1522C69.854 29.1449 70.248 29.2446 70.5958 29.4408L70.8295 28.2094C70.4101 28.0384 69.9609 27.9527 69.508 27.9573L69.5048 27.973ZM61.0734 32.6396C60.9411 32.3668 60.8841 32.0635 60.9084 31.7612C63.2966 31.8122 64.9476 31.3024 64.9476 29.7181C64.9476 28.6749 64.1711 27.9769 62.9515 27.9769C60.8182 27.9769 59.4456 30.0083 59.4456 31.8749C59.4456 33.3887 60.2691 34.4396 61.9868 34.4396C62.8024 34.4469 63.6066 34.2472 64.324 33.8592L64.5774 32.5259C63.9293 33.012 63.1404 33.2736 62.3303 33.271C62.0807 33.2915 61.8302 33.2431 61.6061 33.1311C61.3821 33.0191 61.1931 32.8477 61.0597 32.6357L61.0734 32.6396ZM62.7754 29.0828C63.246 29.0828 63.5636 29.3236 63.5636 29.7181C63.5636 30.4671 62.5872 30.671 61.0617 30.6553C61.2401 29.9063 61.8499 29.0828 62.7754 29.0828ZM105.913 27.9769C103.281 27.9769 101.952 30.3024 101.952 32.2514C101.952 33.3573 102.497 34.4357 103.819 34.4357C104.225 34.4333 104.625 34.3312 104.984 34.1384C105.342 33.9456 105.647 33.668 105.873 33.3298L105.755 33.871C105.451 35.3063 104.712 35.7651 103.747 35.7651C103.183 35.7723 102.626 35.646 102.12 35.3965L101.89 36.6043C102.467 36.8473 103.089 36.9643 103.714 36.9475C104.539 36.988 105.354 36.7459 106.024 36.2612C106.73 35.6769 107.079 34.7122 107.306 33.5043L107.867 30.7004C107.947 30.3503 107.989 29.9928 107.994 29.6338C107.994 28.5161 107.217 27.9671 105.923 27.9671L105.913 27.9769ZM106.383 30.6318L106.269 31.2043C106.015 32.4514 105.226 33.2396 104.465 33.2396C103.779 33.2396 103.485 32.6671 103.485 31.9926C103.485 30.773 104.336 29.1063 105.634 29.1063C105.742 29.0926 105.853 29.1032 105.957 29.1374C106.061 29.1716 106.156 29.2285 106.235 29.3039C106.314 29.3794 106.375 29.4716 106.415 29.5737C106.454 29.6759 106.47 29.7855 106.461 29.8945C106.472 30.1427 106.446 30.391 106.385 30.6318H106.383ZM83.9519 29.6749C83.9519 28.5063 83.2656 27.973 82.3754 27.973C81.9195 27.9792 81.4728 28.1017 81.0775 28.3289C80.6823 28.556 80.3515 28.8803 80.1166 29.271L80.3456 28.0749H79.0123L77.828 34.3102H79.3025L79.8515 31.4514C80.1182 30.0004 80.9691 29.1887 81.6397 29.1887C82.224 29.1887 82.4162 29.5561 82.4162 30.0789C82.4141 30.3263 82.3897 30.5731 82.3433 30.8161L81.6805 34.3102H83.155L83.8452 30.7024C83.9114 30.3664 83.9478 30.0252 83.9538 29.6828L83.9519 29.6749ZM75.4029 27.973C75.0043 27.9749 74.6115 28.0682 74.2546 28.2456C73.8977 28.423 73.5862 28.6799 73.344 28.9965L73.9009 26.0867H72.4146L70.8538 34.2828H72.3283L72.8774 31.424C73.144 29.973 73.995 29.1612 74.6656 29.1612C75.2499 29.1612 75.4421 29.5287 75.4421 30.0514C75.44 30.2989 75.4156 30.5456 75.3691 30.7887L74.7064 34.2828H76.1809L76.8711 30.6749C76.9372 30.3389 76.9734 29.9977 76.9793 29.6553C76.9795 28.4867 76.2931 27.9534 75.4029 27.9534V27.973ZM58.2264 26.5181H56.7872L56.4711 28.1102H55.6476L55.4315 29.2553H56.2589L55.7256 32.0122C55.6449 32.3887 55.602 32.7723 55.5978 33.1573C55.5978 33.8671 56.0448 34.4279 57.0605 34.4279C57.3869 34.4393 57.7129 34.3965 58.0252 34.3012L58.2483 33.1287C58.0534 33.1673 57.855 33.186 57.6562 33.1843C57.581 33.1937 57.5046 33.1855 57.4331 33.1604C57.3616 33.1353 57.2969 33.0939 57.2441 33.0396C57.1913 32.9852 57.1518 32.9194 57.1287 32.8472C57.1056 32.775 57.0996 32.6985 57.1111 32.6236C57.1197 32.329 57.1579 32.036 57.2252 31.7491L57.7076 29.2589H59.0919L59.3201 28.1138H57.9358L58.2264 26.5181ZM113.913 33.1455L113.88 33.3165H113.503L113.319 34.2891H113.133L113.317 33.3165H112.939L112.971 33.1455H113.913ZM115.305 33.1455L115.088 34.2867H114.902L115.054 33.4867L114.591 34.0279H114.48L114.223 33.4828L114.07 34.2828H113.884L114.102 33.1416H114.27L114.579 33.7965L115.136 33.1416L115.305 33.1455ZM107.775 36.6004C108.909 37.1259 110.026 36.8926 110.834 35.4436V35.4411L114.991 28.0686H113.415L111.066 32.6568L110.493 28.0686H108.944L110.046 34.1078L109.564 35.0764C109.128 35.8176 108.371 35.5745 108.022 35.3803L107.775 36.6004ZM61.5009 15.424C61.5186 16.0436 61.4094 16.6603 61.1801 17.2362C60.9508 17.8121 60.6063 18.335 60.1676 18.773C58.9911 19.9416 57.0852 20.5769 54.795 20.5612C53.148 20.534 51.4852 20.1338 50.5597 19.5573L51.1872 16.2592C52.4319 16.935 53.812 17.3236 55.2264 17.3965C56.297 17.3965 57.0185 16.9024 57.0185 16.1102C57.0185 15.3926 56.5127 14.8906 55.2146 14.2553C53.1676 13.2318 52.1401 11.9338 52.1401 10.4004C52.1401 7.38866 54.7048 5.3416 58.5715 5.3416C60.6068 5.3416 61.9323 5.82003 62.6499 6.29454L62.0225 9.58474C60.9203 8.89421 59.6446 8.53109 58.344 8.53768C57.2225 8.53768 56.4931 9.00827 56.4931 9.79258C56.4931 10.3573 57.0538 10.8632 58.2342 11.4396C59.7754 12.2083 61.5166 13.3494 61.5166 15.4004L61.5009 15.424ZM34.8342 5.38474C29.4225 5.38474 25.344 9.34552 25.344 14.6004C25.344 18.2279 27.7519 20.5612 31.5009 20.5612C32.9259 20.5957 34.3423 20.3298 35.6578 19.7808L36.344 16.1651C35.2336 16.7722 33.9899 17.0943 32.7244 17.1024C31.3597 17.1024 29.8931 16.3141 29.8931 14.122C29.8931 11.5338 31.7284 8.86709 34.795 8.86709C35.6274 8.84199 36.4515 9.03821 37.1833 9.43572L37.8538 5.91807C36.895 5.56502 35.8795 5.39089 34.8578 5.40435L34.8342 5.38474ZM110.913 17.1887C112.713 17.1952 114.479 16.698 116.011 15.7534L115.317 19.3926C113.254 20.4436 110.846 20.5612 109.905 20.5612C105.866 20.5612 103.591 18.322 103.591 14.4043C103.596 12.1363 104.4 9.9425 105.862 8.20827C106.627 7.30201 107.582 6.57535 108.66 6.07991C109.737 5.58447 110.911 5.3324 112.097 5.3416C115.14 5.3416 117.156 7.11023 117.156 9.73376C117.177 10.2828 117.084 10.8303 116.882 11.3414C116.68 11.8525 116.374 12.316 115.983 12.7024C114.528 14.1181 110.964 14.9142 107.67 14.271C107.514 16.1102 108.897 17.173 110.94 17.173L110.913 17.1887ZM108.117 11.4632C110.654 11.484 112.077 11.2271 112.705 10.6083C113.379 9.93768 113.168 8.50239 111.505 8.50239C109.634 8.50219 108.442 10.0357 108.117 11.4632ZM101.371 5.38474C95.9597 5.38474 91.8813 9.34552 91.8813 14.6004C91.8813 18.2279 94.2891 20.5612 98.0382 20.5612C99.4632 20.5957 100.88 20.3298 102.195 19.7808L102.881 16.1651C101.771 16.7722 100.527 17.0943 99.2617 17.1024C97.897 17.1024 96.4303 16.3141 96.4303 14.122C96.4303 11.5338 98.2656 8.86709 101.332 8.86709C102.165 8.84199 102.989 9.03821 103.721 9.43572L104.391 5.91807C103.432 5.56502 102.417 5.39089 101.395 5.40435L101.371 5.38474ZM91.1362 12.0906L89.5754 20.2475H85.4578L85.995 17.4357C85.7242 18.3697 85.1484 19.1862 84.3594 19.7548C83.5705 20.3234 82.6138 20.6114 81.6421 20.573C78.7676 20.573 77.4852 18.02 77.4852 15.4749C77.4648 12.6145 78.5575 9.85815 80.5323 7.78866C81.3117 7.00285 82.2408 6.3814 83.2647 5.96107C84.2885 5.54075 85.3863 5.3301 86.4931 5.3416C88.2499 5.34858 89.548 5.85533 90.3597 6.84356C91.5636 8.30239 91.4656 10.4945 91.1636 12.0985L91.1362 12.0906ZM87.1754 10.2122C87.1248 9.18082 86.5872 8.62788 85.6264 8.62788C83.5911 8.62788 81.8303 12.1416 81.8303 14.5887C81.8309 16.1142 82.395 17.0632 83.3793 17.0632C84.9519 17.0632 86.3087 15.4161 86.7754 13.024C86.987 12.1076 87.1195 11.1748 87.1715 10.2357L87.1754 10.2122ZM24.8225 12.0906L23.2617 20.2475H19.144L19.6813 17.4357C19.4105 18.3697 18.8346 19.1862 18.0457 19.7548C17.2567 20.3234 16.3001 20.6114 15.3284 20.573C12.4538 20.573 11.1715 18.02 11.1715 15.4749C11.1511 12.6145 12.2437 9.85815 14.2185 7.78866C14.998 7.00285 15.9271 6.3814 16.951 5.96107C17.9748 5.54075 19.0726 5.3301 20.1793 5.3416C21.9362 5.34858 23.2342 5.85533 24.046 6.84356C25.2499 8.30239 25.1519 10.4945 24.8499 12.0985L24.8225 12.0906ZM20.8617 10.2122C20.8111 9.18082 20.2735 8.62788 19.3127 8.62788C17.2774 8.62788 15.5166 12.1416 15.5166 14.5887C15.5174 16.1142 16.0813 17.0632 17.0656 17.0632C18.6382 17.0632 19.995 15.4161 20.4617 13.024C20.6733 12.1076 20.8058 11.1748 20.8578 10.2357L20.8617 10.2122ZM77.3323 10.8985C77.3323 14.4475 75.6303 18.0749 72.548 19.722C71.5836 20.2567 70.5051 20.5525 69.4029 20.5847C67.8656 20.5847 67.0029 20.0122 66.5127 19.1259L65.4146 24.9298H61.1009L64.7715 5.5965H68.5833L68.1362 7.9416C69.2107 6.37689 70.8068 5.32984 72.6068 5.32984C75.4695 5.32984 77.3127 7.49846 77.3127 10.8985H77.3323ZM72.8225 11.2263C72.8225 10.54 72.6601 8.86944 71.0774 8.86944C69.4656 8.86944 68.1048 10.7047 67.5793 13.4969C67.3989 14.4498 66.8931 17.3087 68.8852 17.3087C71.1558 17.3087 72.8068 14.0851 72.8068 11.2302L72.8225 11.2263ZM6.54796 8.8616L7.16365 5.61454H3.3558L0.520508 20.5165H4.83423L6.00286 14.3596C6.69306 10.7361 8.77149 9.30082 11.7284 9.73219L12.5715 5.30082C11.3191 5.18594 10.0622 5.46752 8.97854 6.10577C7.89485 6.74402 7.03913 7.70666 6.53227 8.85768L6.54796 8.8616ZM41.2538 20.2734L42.744 12.4302L45.8107 20.2734H50.4774L47.3048 12.391L53.0695 5.64591H48.3636L42.795 12.3126L44.9519 0.979248H40.6382L36.9676 20.3126L41.2538 20.2734Z" fill="black"/>
</g>
<defs>
<clipPath id="clip0_2500_105789">
<rect width="116.863" height="36" fill="white" transform="translate(0.59082 0.949951)"/>
</clipPath>
</defs>
</svg>
