<svg width="176" height="28" viewBox="0 0 176 28" fill="none" xmlns="http://www.w3.org/2000/svg">
<g clip-path="url(#clip0_2500_105836)">
<path d="M17.5288 15.6301L11.7488 9.4301C11.4088 9.0501 10.9388 8.8501 10.4388 8.8501H0.73877V12.8101H11.3488C12.1588 12.8101 12.9188 13.1501 13.4888 13.7601C14.0588 14.3701 14.3788 15.1901 14.3788 16.0601V27.4501H18.0688V17.0501C18.0688 16.5101 17.8788 16.0101 17.5288 15.6401V15.6301Z" fill="#7E7E7E"/>
<path d="M27.8087 8.85009C27.3087 8.85009 26.8387 9.06009 26.4987 9.43009L20.7187 15.6301C20.3687 16.0001 20.1787 16.5001 20.1787 17.0401V27.4401H23.8687V16.0501C23.8687 14.2601 25.2287 12.8001 26.8987 12.8001H37.5087V8.84009H27.8087V8.85009Z" fill="#7E7E7E"/>
<path d="M62.8586 8.38989C61.0786 8.38989 59.2286 9.73989 58.3786 11.6799L58.3486 11.7399H58.1086V8.83989H55.3086V27.4399H58.3086V18.9899C58.3086 14.2499 60.2286 11.1899 63.1886 11.1899C63.8286 11.1899 64.3886 11.2999 64.8686 11.4899V8.62989C64.2286 8.48989 63.7486 8.38989 62.8386 8.38989H62.8586Z" fill="#7E7E7E"/>
<path d="M155.349 10.1899C154.219 8.97989 152.519 8.38989 150.149 8.38989C148.199 8.38989 146.289 8.96989 144.489 10.0999L144.639 12.7899C145.959 11.6499 147.849 10.9399 149.629 10.9399C151.149 10.9399 152.239 11.3099 152.949 12.0799C153.709 12.8899 154.059 14.1299 154.059 15.9899V16.1099H153.949C152.669 16.0299 151.769 16.0299 150.519 16.0299C148.389 16.0299 145.529 16.6599 143.869 18.4399C142.949 19.4299 142.489 20.6599 142.489 22.1099C142.489 23.8199 142.949 25.1699 143.849 26.1399C144.919 27.2799 146.629 27.8899 148.809 27.8899C151.939 27.8899 153.589 25.9299 154.149 25.0799L154.179 25.0299H154.409V27.4299H157.069V16.0499C157.069 13.3399 156.509 11.4299 155.349 10.1799V10.1899ZM154.069 18.4599V20.2299C154.069 21.7099 153.629 22.9599 152.799 23.8699C151.919 24.8299 150.639 25.3399 149.089 25.3399C148.149 25.3399 147.169 24.9199 146.529 24.2399C145.999 23.6699 145.719 22.9499 145.719 22.1399C145.719 18.7499 150.039 18.3899 151.899 18.3899C152.249 18.3899 152.599 18.4099 152.929 18.4299C153.269 18.4499 153.609 18.4699 153.959 18.4699H154.059" fill="#7E7E7E"/>
<path d="M77.339 10.1899C76.209 8.97989 74.509 8.38989 72.139 8.38989C70.189 8.38989 68.279 8.96989 66.479 10.0999L66.629 12.7899C67.949 11.6499 69.839 10.9399 71.619 10.9399C73.139 10.9399 74.229 11.3099 74.939 12.0799C75.699 12.8899 76.049 14.1299 76.049 15.9899V16.1099H75.939C74.659 16.0299 73.759 16.0299 72.509 16.0299C70.379 16.0299 67.519 16.6599 65.859 18.4399C64.939 19.4299 64.479 20.6599 64.479 22.1099C64.479 23.8199 64.939 25.1699 65.839 26.1399C66.899 27.2799 68.619 27.8899 70.799 27.8899C73.929 27.8899 75.579 25.9299 76.139 25.0799L76.169 25.0299H76.399V27.4299H79.059V16.0499C79.059 13.3399 78.499 11.4299 77.339 10.1799V10.1899ZM76.059 18.4599V20.2299C76.059 21.7099 75.619 22.9599 74.789 23.8699C73.909 24.8299 72.629 25.3399 71.079 25.3399C70.139 25.3399 69.159 24.9199 68.529 24.2399C67.999 23.6699 67.719 22.9499 67.719 22.1399C67.719 18.7499 72.039 18.3899 73.899 18.3899C74.239 18.3899 74.599 18.4099 74.939 18.4299C75.279 18.4499 75.619 18.4699 75.959 18.4699H76.059" fill="#7E7E7E"/>
<path d="M95.3087 10.1199C94.2387 8.96989 92.6987 8.38989 90.7187 8.38989C88.2387 8.38989 85.9687 9.72989 85.0587 11.7399L85.0287 11.8099H84.7887V8.85989H81.8887V27.4399H84.8887V18.8499C84.8887 16.4399 85.3287 14.5199 86.1887 13.1599C87.1287 11.6899 88.5187 10.9499 90.3287 10.9499C93.0787 11.1299 94.1487 13.0499 94.1487 17.7899V27.4399H97.1487V16.3499C97.1487 13.5399 96.5187 11.4499 95.2887 10.1199" fill="#7E7E7E"/>
<path d="M124.579 16.7299C122.919 15.9199 121.359 15.1499 121.359 13.3699C121.359 11.8999 122.609 10.9599 124.549 10.9599C125.259 10.9599 127.029 11.3899 127.859 11.8599L128.109 9.11991C126.779 8.68991 125.599 8.40991 124.199 8.40991C122.199 8.40991 120.569 9.01991 119.499 10.1699C118.589 11.1499 118.129 12.4599 118.129 14.0799C118.129 16.9499 120.439 18.1599 122.469 19.2199C124.139 20.0899 125.719 20.9199 125.719 22.5299C125.719 23.2599 125.499 23.8699 125.059 24.3399C124.209 25.2499 122.859 25.3499 122.329 25.3499C121.469 25.3499 119.719 24.9599 118.399 24.0899L118.239 26.9199C119.799 27.7899 121.569 27.8999 122.939 27.8999C124.559 27.8999 126.039 27.4099 127.099 26.5099C128.309 25.4899 128.949 23.9799 128.949 22.1499C128.949 18.8599 126.629 17.7299 124.579 16.7299Z" fill="#7E7E7E"/>
<path d="M139.409 25.3399C138.669 25.3399 137.979 25.0399 137.489 24.5099C136.899 23.8799 136.589 22.9599 136.589 21.8499V11.3999H141.229V8.83993H136.589V3.42993L133.579 4.46993V8.84993H129.629V11.4099H133.579V22.5699C133.579 24.2599 133.999 25.5799 134.839 26.4699C135.729 27.4199 137.079 27.9099 138.859 27.9099C139.879 27.9099 140.869 27.6199 141.509 27.4299V24.7699C140.889 25.1599 140.189 25.3599 139.419 25.3599" fill="#7E7E7E"/>
<path d="M172.889 0V11.4H172.659L172.629 11.35C171.499 9.39 169.579 8.4 166.919 8.4C164.889 8.4 163.199 9.1 161.909 10.49C160.339 12.18 159.469 14.78 159.469 17.8C159.469 21.16 160.419 24.1 162.069 25.87C163.329 27.22 164.949 27.9 166.889 27.9C169.859 27.9 171.879 26.34 172.779 24.87L172.809 24.82H173.039V27.44H175.909V0H172.909H172.889ZM172.889 18.18C172.889 20.45 172.169 22.59 170.949 23.89C170.059 24.85 168.939 25.34 167.629 25.34C166.449 25.34 165.429 24.87 164.599 23.95C163.129 22.33 162.649 19.76 162.689 18.07C162.639 15.67 163.269 13.58 164.419 12.32C165.249 11.41 166.319 10.95 167.599 10.95C168.879 10.95 170.049 11.44 170.959 12.42C172.189 13.74 172.889 15.84 172.889 18.19V18.18Z" fill="#7E7E7E"/>
<path d="M113.009 0V11.4H112.779L112.749 11.35C111.619 9.39 109.689 8.4 107.039 8.4C105.009 8.4 103.319 9.1 102.029 10.49C100.459 12.18 99.5889 14.78 99.5889 17.8C99.5889 21.16 100.539 24.1 102.189 25.87C103.449 27.22 105.069 27.9 107.009 27.9C109.979 27.9 111.999 26.34 112.899 24.87L112.929 24.82H113.159V27.44H116.029V0H113.029H113.009ZM113.009 18.18C113.009 20.45 112.279 22.59 111.069 23.89C110.169 24.85 109.059 25.34 107.749 25.34C106.569 25.34 105.549 24.87 104.719 23.95C103.249 22.33 102.769 19.76 102.809 18.07C102.759 15.67 103.389 13.58 104.539 12.32C105.369 11.41 106.439 10.95 107.719 10.95C108.999 10.95 110.169 11.44 111.079 12.42C112.309 13.74 113.009 15.84 113.009 18.19V18.18Z" fill="#7E7E7E"/>
</g>
<defs>
<clipPath id="clip0_2500_105836">
<rect width="175.15" height="27.9" fill="white" transform="translate(0.73877)"/>
</clipPath>
</defs>
</svg>
