<svg width="162" height="21" viewBox="0 0 162 21" fill="none" xmlns="http://www.w3.org/2000/svg">
<g opacity="0.5" clip-path="url(#clip0_2500_105816)">
<path d="M151.981 8.86016L151.218 7.145C152.789 6.20901 154.589 5.7289 156.417 5.758C159.98 5.758 161.695 7.71564 161.695 11.3626V20.1793H159.949L159.762 18.5983C158.392 19.7654 156.664 20.4282 154.865 20.4767C152.144 20.4767 150.429 18.8165 150.429 16.3691C150.429 13.6791 152.144 11.9882 155.652 11.9882H159.676V11.5275C159.676 8.99434 158.56 7.63805 156.089 7.63805C154.635 7.67684 153.218 8.09876 151.981 8.86178V8.86016ZM159.677 13.7082H155.733C153.557 13.7082 152.472 14.6054 152.472 16.1314C152.472 17.6574 153.641 18.6031 155.356 18.6031C156.957 18.5546 158.489 17.9387 159.677 16.8637V13.7066V13.7082ZM112.686 20.1793L110.122 5.03055L104.736 20.1793H103.184L97.8217 4.99337L95.2336 20.1793H93.0819L96.4638 1.14112H98.5604L103.971 16.9753L109.359 1.14112H111.456L114.838 20.1857L112.686 20.1793ZM127.901 19.1738C126.385 20.0354 124.665 20.4767 122.92 20.4525C118.678 20.4525 115.982 17.4586 115.982 13.102C115.982 8.99434 118.678 5.758 122.429 5.758C126.179 5.758 128.415 8.66618 128.415 12.3147C128.415 12.8304 128.415 13.3509 128.36 13.8666H118.059C118.381 16.7506 120.235 18.629 123.088 18.629C124.519 18.6031 125.925 18.2491 127.196 17.5928L127.899 19.1738H127.901ZM126.349 12.0965V11.9882C126.349 9.48577 124.883 7.58308 122.46 7.58308C120.036 7.58308 118.429 9.51648 118.079 12.0981H126.351L126.349 12.0965ZM142.97 0.534912V20.1502H141.231L141.037 18.7147C139.752 19.8446 138.095 20.4638 136.383 20.4541C132.571 20.4541 130.45 17.1337 130.45 13.1343C130.45 9.13498 132.873 5.75961 136.734 5.75961C138.263 5.758 139.752 6.25266 140.976 7.17086V0.534912H142.969H142.97ZM136.795 18.5983C138.326 18.5498 139.789 17.9614 140.927 16.9381V9.13336C139.863 8.17636 138.496 7.62673 137.067 7.58147C134.207 7.58147 132.492 9.92062 132.492 13.1327C132.492 16.1508 133.989 18.5983 136.794 18.5983H136.795ZM148.017 5.81296V20.1793H145.976V5.81296H148.017ZM13.2113 8.20707C12.993 9.46152 12.6665 10.8485 12.4773 11.6616L10.4114 20.1809H5.56335L0.0444336 1.14112H4.5045L7.09261 10.6545C7.28013 11.4968 7.63739 12.9387 7.91058 14.1382L11.0612 1.14112H15.3338L18.5216 14.1447C18.8191 12.9323 19.1699 11.5032 19.3639 10.661L21.8889 1.14112H26.3555L20.9012 20.1857H16.0532L13.9452 11.66C13.7577 10.8356 13.4295 9.4599 13.2113 8.20546V8.20707ZM52.1072 5.81296H55.6393L55.9125 7.30989C56.53 6.72308 57.2494 6.25428 58.0334 5.92288C58.8045 5.62059 59.629 5.47187 60.4567 5.48641C61.7887 5.40882 63.0803 5.9633 63.9403 6.98334C64.7583 7.98884 65.1527 9.40656 65.1527 11.2252V20.1809H61.0984V11.4741C61.1502 10.8113 60.9562 10.1534 60.5536 9.62641C60.0978 9.17216 59.4609 8.95069 58.8207 9.0202C57.8346 9.0493 56.8905 9.42434 56.155 10.0807V20.1825H52.1072V5.81296ZM78.9387 16.2898L80.1867 19.0412C78.4974 20.0661 76.5494 20.5834 74.5756 20.5317C70.3338 20.5317 67.3044 17.3745 67.3044 12.9937C67.3044 8.61283 70.1107 5.51066 74.2426 5.51066C78.3745 5.51066 80.6894 8.317 80.6894 12.5572C80.6894 13.102 80.6894 13.8359 80.6345 14.2417H71.3021C71.6594 16.2284 72.993 17.1806 75.2223 17.1806C76.5123 17.1725 77.7829 16.867 78.9371 16.2898H78.9387ZM71.2908 11.5808H76.9503V11.4483C76.9568 10.7014 76.6966 9.97882 76.2164 9.40656C75.7218 8.86663 75.0153 8.56757 74.283 8.58858C73.5362 8.57403 72.8152 8.86986 72.2963 9.40656C71.7467 10.0208 71.3959 10.7887 71.2908 11.6067V11.5824V11.5808ZM49.7923 5.79356C49.6177 5.76931 49.4415 5.758 49.2653 5.758C47.597 5.76285 45.9998 6.44018 44.8359 7.63643L44.5627 5.81781H41.0241V20.1793H45.0784V10.3571C46.0855 9.73795 47.2413 9.40656 48.423 9.40009C48.8821 9.39686 49.3396 9.43404 49.7923 9.5084V5.79356ZM91.6028 9.5084H91.6578L92.3189 5.98755L92.1136 5.92127C91.7758 5.84044 91.4314 5.79518 91.0839 5.78871C89.4124 5.79356 87.8136 6.4709 86.648 7.66715L86.3749 5.84852H82.8362V20.1793H86.8905V10.3571C87.8993 9.73795 89.0583 9.40656 90.2417 9.40009C90.7072 9.39686 91.1712 9.43404 91.6287 9.5084H91.6044H91.6028ZM146.958 0.534912C146.236 0.534912 145.649 1.1201 145.649 1.84432C145.649 2.56854 146.236 3.15373 146.958 3.15373C147.681 3.15373 148.268 2.56854 148.268 1.84432C148.268 1.1201 147.681 0.534912 146.958 0.534912ZM32.5048 5.4848C30.6054 5.48803 28.7269 5.88732 26.9908 6.66003L27.7667 9.82848C29.0406 9.24652 30.4211 8.93452 31.821 8.91351C33.5912 8.91351 34.5174 9.62318 34.5174 11.4709V11.6035H31.7661C27.7667 11.6035 25.9432 13.2087 25.9432 16.1233C25.9432 18.7357 27.8217 20.5284 30.6523 20.5284C32.2607 20.5349 33.811 19.9206 34.9782 18.8133L35.2271 20.176H38.541V11.2203C38.541 7.54752 36.3652 5.48157 32.5064 5.48157L32.5048 5.4848ZM34.5158 16.555C33.7544 17.0997 32.8605 17.4263 31.9277 17.5006C30.7153 17.5006 29.9943 16.8217 29.9943 15.8404C29.9943 14.8592 30.704 14.211 32.036 14.211H34.5142V16.5566L34.5158 16.555Z" fill="#1E1E1E"/>
</g>
<defs>
<clipPath id="clip0_2500_105816">
<rect width="161.65" height="20" fill="white" transform="translate(0.0444336 0.534912)"/>
</clipPath>
</defs>
</svg>
