<svg width="106" height="41" viewBox="0 0 106 41" fill="none" xmlns="http://www.w3.org/2000/svg">
<g opacity="0.5" clip-path="url(#clip0_2500_105859)">
<path d="M85.3998 24.3899L87.1098 23.9899C87.1098 23.9899 87.2099 23.9699 87.2799 23.9399C87.7499 23.8099 88.1598 23.5099 88.4098 23.0899C88.6598 22.6699 88.7398 22.1699 88.6298 21.6899V21.6599C88.5698 21.4299 88.4698 21.2199 88.3298 21.0199C88.1398 20.7799 87.8998 20.5699 87.6298 20.4199C87.3098 20.2399 86.9799 20.0899 86.6399 19.9599L84.7598 19.2799C83.7098 18.8899 82.6498 18.5099 81.5898 18.1299C80.8998 17.8899 80.3198 17.6699 79.8098 17.5099C79.7098 17.4799 79.6098 17.4499 79.5198 17.4199C78.9098 17.2299 78.4798 17.1499 78.1098 17.1499C77.8698 17.1499 77.6198 17.1899 77.3998 17.2799C77.1698 17.3799 76.9599 17.5299 76.7799 17.7199C76.6899 17.8199 76.6098 17.9199 76.5398 18.0299C76.4698 18.1399 76.3999 18.2499 76.3499 18.3699C76.2799 18.4899 76.2298 18.6199 76.1798 18.7499C75.8298 19.7799 75.6599 20.8599 75.6699 21.9499C75.6699 22.9299 75.6998 24.1899 76.2398 25.0499C76.3698 25.2699 76.5399 25.4599 76.7499 25.6099C77.1299 25.8799 77.5198 25.9099 77.9298 25.9399C78.5298 25.9799 79.1198 25.8299 79.6998 25.6999L85.3798 24.3899H85.3998Z" fill="#5D5D5D"/>
<path d="M104.49 15.3099C104.02 14.3299 103.4 13.4399 102.63 12.6599C102.53 12.5599 102.43 12.4699 102.31 12.3899C102.21 12.3099 102.1 12.2399 101.99 12.1699C101.88 12.1099 101.76 12.0499 101.64 11.9999C101.4 11.9099 101.15 11.8699 100.89 11.8799C100.65 11.8899 100.41 11.9599 100.19 12.0799C99.8597 12.2399 99.5097 12.4999 99.0397 12.9399C98.9697 12.9999 98.8897 13.0799 98.8197 13.1499C98.4297 13.5099 97.9997 13.9599 97.4897 14.4899C96.6997 15.2899 95.9197 16.0999 95.1397 16.9099L93.7497 18.3499C93.4997 18.6099 93.2597 18.8999 93.0597 19.1999C92.8797 19.4599 92.7597 19.7399 92.6897 20.0399C92.6497 20.2699 92.6597 20.5099 92.7097 20.7399V20.7699C92.8297 21.2499 93.1197 21.6599 93.5297 21.9299C93.9397 22.1999 94.4397 22.2899 94.9197 22.1999C94.9997 22.1899 95.0497 22.1799 95.0897 22.1699L102.49 20.4599C103.07 20.3299 103.66 20.1999 104.19 19.8999C104.54 19.6999 104.87 19.4899 105.11 19.0899C105.23 18.8699 105.31 18.6199 105.33 18.3699C105.44 17.3599 104.92 16.2199 104.49 15.3299V15.3099Z" fill="#5D5D5D"/>
<path d="M91.25 18.4199C91.79 17.7499 91.78 16.7399 91.83 15.9199C91.99 13.1799 92.16 10.4399 92.3 7.68988C92.35 6.64988 92.46 5.62988 92.4 4.57988C92.35 3.71988 92.34 2.72988 91.8 2.01988C90.84 0.769878 88.79 0.869878 87.38 1.06988C86.95 1.12988 86.52 1.20988 86.1 1.30988C85.67 1.40988 85.25 1.51988 84.84 1.65988C83.5 2.09988 81.61 2.90988 81.29 4.45988C81.11 5.32988 81.54 6.22988 81.87 7.02988C82.27 7.99988 82.82 8.86988 83.32 9.77988C84.64 12.1899 85.99 14.5799 87.33 16.9699C87.73 17.6899 88.17 18.5899 88.94 18.9599C88.99 18.9799 89.04 18.9999 89.1 19.0199C89.45 19.1499 89.83 19.1799 90.19 19.0899C90.21 19.0899 90.23 19.0799 90.25 19.0799C90.58 18.9899 90.89 18.8099 91.13 18.5499C91.17 18.5099 91.21 18.4699 91.25 18.4199Z" fill="#5D5D5D"/>
<path d="M90.6098 25.7599C90.3998 25.4699 90.0998 25.2399 89.7598 25.1299C89.4198 25.0099 89.0498 25.0099 88.6998 25.1199C88.6198 25.1499 88.5398 25.1799 88.4598 25.2199C88.3398 25.2799 88.2298 25.3499 88.1198 25.4299C87.8098 25.6599 87.5498 25.9499 87.3198 26.2499C87.2598 26.3299 87.2098 26.4299 87.1298 26.4899L85.9398 28.1299C85.2698 29.0499 84.5998 29.9699 83.9398 30.8999C83.5098 31.4999 83.1398 32.0099 82.8398 32.4599C82.7798 32.5499 82.7298 32.6399 82.6698 32.7099C82.3198 33.2499 82.1198 33.6499 82.0198 34.0099C81.9398 34.2499 81.9198 34.4899 81.9498 34.7399C81.9798 34.9999 82.0698 35.2399 82.1998 35.4599C82.2698 35.5699 82.3498 35.6799 82.4298 35.7799C82.5198 35.8799 82.6098 35.9699 82.6998 36.0599C82.7998 36.1599 82.9098 36.2499 83.0298 36.3299C83.8498 36.8999 84.7498 37.3099 85.6998 37.6299C86.4898 37.8899 87.2998 38.0499 88.1298 38.0899C88.2698 38.0899 88.4098 38.0899 88.5498 38.0899C88.6798 38.0799 88.8098 38.0599 88.9398 38.0399C89.0698 38.0099 89.1898 37.9699 89.3198 37.9299C89.5598 37.8399 89.7798 37.6999 89.9698 37.5199C90.1398 37.3499 90.2798 37.1399 90.3598 36.8999C90.4998 36.5599 90.5898 36.1199 90.6498 35.4799C90.6498 35.3899 90.6698 35.2799 90.6798 35.1799C90.7298 34.6399 90.7498 34.0099 90.7798 33.2699C90.8398 32.1299 90.8798 30.9999 90.9198 29.8599L90.9998 27.8399C91.0198 27.3699 90.9998 26.8599 90.8698 26.3999C90.8098 26.1799 90.7198 25.9699 90.5998 25.7699L90.6098 25.7599Z" fill="#5D5D5D"/>
<path d="M104.04 28.9198C103.79 28.6498 103.44 28.3798 102.89 28.0398C102.81 27.9998 102.72 27.9398 102.63 27.8798C102.17 27.5998 101.61 27.3098 100.96 26.9598C99.9599 26.4098 98.9599 25.8798 97.9499 25.3498L96.1699 24.3998C96.0799 24.3698 95.9799 24.3098 95.8999 24.2598C95.5599 24.0998 95.1899 23.9398 94.8199 23.8698C94.6899 23.8398 94.5599 23.8298 94.4299 23.8298C94.3399 23.8298 94.2599 23.8298 94.1799 23.8498C93.8199 23.8998 93.4899 24.0698 93.2399 24.3298C92.9799 24.5798 92.8099 24.9098 92.7499 25.2698C92.7199 25.4998 92.7299 25.7298 92.7699 25.9498C92.8599 26.4198 93.0699 26.8898 93.2899 27.2998L94.2399 29.0798C94.7699 30.0898 95.3099 31.0898 95.8599 32.0798C96.2099 32.7298 96.5099 33.2898 96.7899 33.7498C96.8399 33.8398 96.8999 33.9298 96.9499 34.0098C97.2899 34.5598 97.5599 34.9098 97.8299 35.1598C98.0099 35.3298 98.2199 35.4598 98.4499 35.5398C98.6999 35.6198 98.9499 35.6498 99.2099 35.6198C99.3399 35.5998 99.4699 35.5798 99.5999 35.5498C99.7299 35.5198 99.8499 35.4798 99.9699 35.4298C100.1 35.3798 100.23 35.3198 100.35 35.2498C101.07 34.8398 101.74 34.3398 102.33 33.7598C103.04 33.0598 103.67 32.2998 104.16 31.4198C104.23 31.2998 104.29 31.1698 104.34 31.0398C104.39 30.9198 104.43 30.7898 104.46 30.6698C104.49 30.5398 104.51 30.4098 104.53 30.2798C104.56 30.0198 104.53 29.7598 104.44 29.5198C104.36 29.2898 104.23 29.0698 104.06 28.8898L104.04 28.9198Z" fill="#5D5D5D"/>
<path fill-rule="evenodd" clip-rule="evenodd" d="M42.6598 11.5699C42.6598 10.0999 43.8598 8.8999 45.2998 8.8999C46.7398 8.8999 47.8798 10.0999 47.9398 11.5899V32.4399C47.9398 33.9099 46.7398 35.1099 45.2998 35.1099C43.8598 35.1099 42.6598 33.9099 42.6598 32.4399V11.5699ZM40.1998 24.4499C40.1798 24.8599 40.0798 25.6299 39.5398 26.1899C38.9598 26.7899 38.1798 26.9399 37.7198 26.9399C35.8298 26.9499 33.9398 26.9599 32.0498 26.9599C30.1598 26.9599 28.2698 26.9699 26.3798 26.9799C26.5498 27.4999 26.8798 28.2899 27.6198 29.0099C28.0698 29.4499 28.5098 29.6899 28.6898 29.7999C28.9198 29.9499 29.6998 30.3599 30.6698 30.3599C31.6998 30.3599 32.6098 30.0299 33.4998 29.5699L33.5698 29.5299C34.1898 29.2099 34.8198 28.8799 35.4998 28.7599C36.1598 28.6599 36.8598 28.7799 37.3798 29.2399C37.9998 29.7799 38.2498 30.5699 38.0198 31.3699C37.7498 32.2799 36.9898 33.0699 36.1798 33.5399C35.7298 33.8099 35.2298 34.0399 34.7298 34.2199C34.0898 34.4499 33.4298 34.6099 32.7698 34.7199C32.1098 34.8199 31.4298 34.8699 30.7498 34.8399C30.4198 34.8399 30.0698 34.8399 29.7198 34.7999C29.3498 34.7599 28.9798 34.6799 28.6298 34.5899C28.0498 34.4699 27.5198 34.2799 26.9798 34.0299C26.4598 33.7999 25.9498 33.5099 25.4698 33.1799C24.9898 32.8499 24.5598 32.4599 24.1498 32.0399C23.7598 31.6299 23.3898 31.1699 23.0598 30.6699C21.9498 28.9699 21.4298 26.8799 21.5298 24.8499C21.6098 22.8599 22.2698 20.8699 23.4698 19.2599C23.5998 19.0599 23.7498 18.8899 23.8898 18.7199C23.9498 18.6499 24.0098 18.5799 24.0698 18.5099C25.5498 16.6999 27.5298 16.1299 28.3398 15.8899H28.3898C30.7198 15.2099 32.6598 15.6499 33.4498 15.8799C33.8398 15.9799 36.0498 16.6699 37.7698 18.5099C37.8498 18.5899 38.0798 18.8599 38.3698 19.2599C39.4598 20.7399 39.8298 22.1199 39.9598 22.5799C40.0798 23.0499 40.2098 23.6699 40.2098 24.4299L40.1998 24.4499ZM28.0798 21.0299C26.8798 21.9999 26.5498 23.2499 26.4698 23.6399H35.4698C35.3898 23.2699 35.0398 21.9999 33.8398 21.0299C32.6198 20.0599 31.3398 19.9899 30.9498 19.9899C30.5598 19.9899 29.2798 20.0499 28.0798 21.0299ZM62.3198 15.5399C59.9698 15.5399 57.8198 16.5999 56.2898 18.3199V18.2599C56.2298 16.8699 55.0698 15.7499 53.6698 15.7499C52.2698 15.7499 51.0298 16.9299 51.0298 18.3999V38.2999C51.0298 39.7699 52.2098 40.9499 53.6698 40.9499C55.1298 40.9499 56.3098 39.7699 56.3098 38.2999V32.0899C57.8398 33.7899 59.9698 34.8699 62.3398 34.8699C67.0698 34.8699 70.9098 30.5799 70.9098 25.2399C70.8898 19.8999 67.0498 15.5499 62.3198 15.5499V15.5399ZM61.1598 30.5299C58.4798 30.5299 56.2898 28.1899 56.2898 25.2699C56.2898 22.3499 58.4598 19.9899 61.1598 19.9899C63.8598 19.9899 66.0298 22.3299 66.0298 25.2699C66.0098 28.1899 63.8398 30.5299 61.1598 30.5299ZM17.5698 26.6199L16.6998 28.5299C16.3098 29.3599 15.9198 30.2099 15.5398 31.0599C15.4198 31.3199 15.2998 31.5899 15.1798 31.8599C13.5298 35.5299 11.5698 39.8899 7.29981 40.8199C5.22981 41.2799 2.11981 40.6499 0.95981 38.7099C-0.20019 36.7399 1.51981 34.4899 3.72981 34.9999C4.07981 35.0799 4.41981 35.2499 4.76981 35.4199C5.34981 35.7099 5.92981 35.9999 6.55981 35.8699C7.15981 35.7699 7.52981 35.3299 8.00981 34.7699C8.66981 33.9999 8.95981 33.1999 9.07981 32.7199C9.06981 32.6999 9.05981 32.6699 9.04981 32.6499C9.03981 32.6199 9.02981 32.5999 9.01981 32.5799C8.47981 31.5799 8.00981 30.6799 7.61981 29.9299C7.35981 29.4399 7.13981 29.0199 6.94981 28.6599C6.56981 27.9299 6.26981 27.3799 6.04981 26.9499C5.38981 25.6999 5.27981 25.4899 4.98981 24.9499C4.34981 23.7299 3.66981 22.5499 2.96981 21.3699C2.20981 20.0899 1.41981 18.6599 2.05981 17.1499C2.57981 15.9299 3.89981 15.3099 5.15981 15.6999C6.48981 16.0999 7.07981 17.3699 7.62981 18.5499C7.72981 18.7599 7.82981 18.9699 7.92981 19.1799C8.81981 20.9399 9.68981 22.6999 10.5498 24.4599C10.6298 24.6299 10.7398 24.8699 10.8798 25.1599C11.0098 25.4199 11.1498 25.7199 11.3098 26.0499C11.3898 26.2199 11.4698 26.3799 11.5398 26.5299C11.6298 26.7199 11.7098 26.8799 11.7698 26.9999C12.1698 25.9999 12.5798 24.9999 12.9898 23.9999C13.3998 22.9999 13.8098 21.9999 14.2098 20.9999C14.2198 20.9399 14.3198 20.7299 14.4598 20.4099C14.5798 20.1399 14.7398 19.7899 14.9098 19.3899C14.9698 19.2499 15.0298 19.1099 15.0798 18.9699C15.6198 17.6599 16.2598 16.0899 17.6898 15.6599C18.7198 15.3499 19.8798 15.7599 20.4798 16.6299C20.7898 17.0599 20.9098 17.5599 20.9298 18.0599C20.9498 19.1599 20.4198 20.3399 19.9598 21.3499C19.8498 21.5999 19.7398 21.8299 19.6498 22.0599C19.6498 22.0599 19.6298 22.1099 19.5998 22.1799C19.4698 22.4599 19.1298 23.2299 18.5398 24.4999C18.3298 24.9499 18.1198 25.4099 17.9098 25.8699C17.7998 26.1199 17.6798 26.3799 17.5698 26.6299V26.6199Z" fill="black"/>
<path d="M72.9101 33.1198H73.1001C73.1901 33.1198 73.2701 33.0998 73.3301 33.0498C73.3901 32.9998 73.4201 32.9398 73.4201 32.8598C73.4201 32.7698 73.3901 32.7098 73.3401 32.6698C73.2901 32.6298 73.2101 32.6098 73.1001 32.6098H72.9101V33.1198ZM73.6801 32.8498C73.6801 32.9398 73.6501 33.0298 73.6001 33.0998C73.5501 33.1698 73.4801 33.2298 73.3901 33.2598L73.8101 33.9598H73.5101L73.1401 33.3298H72.9001V33.9598H72.6401V32.3798H73.1001C73.3001 32.3798 73.4401 32.4198 73.5301 32.4998C73.6201 32.5798 73.6701 32.6898 73.6701 32.8498H73.6801ZM71.8101 33.1698C71.8101 32.9298 71.8701 32.7098 71.9901 32.5098C72.1101 32.2998 72.2701 32.1398 72.4801 32.0198C72.6901 31.8998 72.9101 31.8398 73.1501 31.8398C73.3901 31.8398 73.6101 31.8998 73.8101 32.0198C74.0201 32.1398 74.1801 32.2998 74.3001 32.5098C74.4201 32.7198 74.4801 32.9398 74.4801 33.1798C74.4801 33.4198 74.4201 33.6298 74.3101 33.8398C74.2001 34.0398 74.0301 34.2098 73.8301 34.3298C73.6201 34.4498 73.4001 34.5098 73.1501 34.5098C72.9001 34.5098 72.6801 34.4498 72.4701 34.3298C72.2601 34.2098 72.1001 34.0398 71.9901 33.8398C71.8801 33.6398 71.8201 33.4198 71.8201 33.1798L71.8101 33.1698ZM72.0001 33.1698C72.0001 33.3698 72.0501 33.5698 72.1501 33.7398C72.2501 33.9198 72.3901 34.0598 72.5701 34.1598C72.7501 34.2598 72.9401 34.3098 73.1401 34.3098C73.3401 34.3098 73.5401 34.2598 73.7101 34.1598C73.8901 34.0598 74.0301 33.9198 74.1301 33.7398C74.2301 33.5598 74.2901 33.3698 74.2901 33.1598C74.2901 32.9498 74.2401 32.7598 74.1401 32.5898C74.0401 32.4098 73.9001 32.2698 73.7201 32.1698C73.5501 32.0698 73.3501 32.0098 73.1501 32.0098C72.9501 32.0098 72.7501 32.0598 72.5801 32.1598C72.4001 32.2598 72.2601 32.3998 72.1601 32.5798C72.0601 32.7498 72.0101 32.9498 72.0101 33.1498L72.0001 33.1698Z" fill="black"/>
</g>
<defs>
<clipPath id="clip0_2500_105859">
<rect width="104.75" height="40" fill="white" transform="translate(0.589844 0.949951)"/>
</clipPath>
</defs>
</svg>
