<svg xmlns="http://www.w3.org/2000/svg" xmlns:xlink="http://www.w3.org/1999/xlink" width="1922" height="436" viewBox="0 0 1922 436">
  <defs>
    <rect id="bg-cta-a" width="1920" height="436" x=".547" y="0"/>
  </defs>
  <g fill="none" fill-rule="evenodd" transform="translate(.453)">
    <mask id="bg-cta-b" fill="#fff">
      <use xlink:href="#bg-cta-a"/>
    </mask>
    <g stroke-linecap="round" mask="url(#bg-cta-b)">
      <g transform="translate(-95 -282)">
        <path stroke="#28E06E" stroke-width="3" d="M1914.55909,280.476347 C2218.65967,199.841218 2356.0297,199.841218 2326.66918,280.476347 C2282.6284,401.42904 1614.67103,664.699035 1706.8301,497.663365 C1798.98918,330.627694 2164.43284,726.582146 1847.1229,892.539798 C1635.58293,1003.17823 1377.05759,956.775687 1071.54688,753.332162" opacity=".147" transform="matrix(-1 0 0 1 3402.094 0)"/>
        <path stroke="#28E06E" stroke-width="3" d="M1801.02771,233.509241 C2006.09633,172.830253 2098.73108,172.830253 2078.93197,233.509241 C2049.23331,324.527722 1448.874,735.170314 1660.94676,396.945309 C1873.01953,58.7203035 1955.42915,722.756006 1755.55247,694.094983 C1655.39164,679.732568 1483.85099,622.288168 1292.4457,585.614088 C1101.89075,549.102936 891.647262,533.177964 712.546875,600.844235 C473.213542,691.267234 235.697917,599.872273 0,326.65935" opacity=".547"/>
        <path stroke="#28E06E" stroke-width="3" d="M598.027709,442.786373 C803.096329,388.404542 895.731083,388.404542 875.931973,442.786373 C846.233307,524.35912 243.117188,920.96875 428.1875,591.484375 C613.257813,262 766.528755,743.648424 552.552468,855.573352 C409.90161,930.189971 235.566412,898.895231 29.546875,761.689132" opacity=".241" transform="matrix(1 0 0 -1 0 1297)"/>
        <path stroke="#160647" stroke-width="8" d="M158.41014 288.118186C-8.29815768 410.370091-.680920481 679.495199 449.559209 495.558757 799.641245 352.539865 943.083811 81.1437069 783.853713 18M1525.87548 201.087983C1401.79386 292.097734 1407.4634 492.446426 1742.57884 355.515963 2003.14623 249.046344 2109.91108 47.0069818 1991.39551 0" opacity=".084"/>
      </g>
    </g>
  </g>
</svg>
