<svg width="28" height="28" viewBox="0 0 28 28" fill="none" xmlns="http://www.w3.org/2000/svg">
    <path d="M14.0006 1.75333C14.0006 1.75333 21.2212 1.43046 25.0494 8.66239H13.3862C13.3862 8.66239 11.1851 8.59171 9.30484 11.2524C8.76473 12.3692 8.18417 13.5196 8.83568 15.7868C7.89714 14.2024 3.85303 7.18578 3.85303 7.18578C3.85303 7.18578 6.70553 2.03923 14.0005 1.75333H14.0006Z" fill="#EF3F36"/>
    <path d="M24.6746 20.1124C24.6746 20.1124 21.3427 26.5068 13.1465 26.1906C14.1592 24.4448 18.9797 16.1264 18.9797 16.1264C18.9797 16.1264 20.1444 14.2629 18.7704 11.3096C18.0716 10.2837 17.3593 9.21068 15.0639 8.63878C16.9104 8.62206 25.0291 8.63878 25.0291 8.63878C25.0291 8.63878 28.0705 13.6743 24.6746 20.1124Z" fill="#FCD900"/>
    <path d="M3.37702 20.163C3.37702 20.163 -0.515246 14.0914 3.85971 7.17566C4.86908 8.92146 9.68962 17.2399 9.68962 17.2399C9.68962 17.2399 10.7294 19.1774 13.9802 19.4666C15.2192 19.3758 16.5087 19.2985 18.1561 17.6065C17.2479 19.2077 13.1733 26.2042 13.1733 26.2042C13.1733 26.2042 7.27254 26.3119 3.37692 20.163H3.37702Z" fill="#61BC5B"/>
    <path d="M13.1433 26.2512L14.7839 19.4297C14.7839 19.4297 16.5866 19.2883 18.099 17.6368C17.1605 19.2817 13.1433 26.2512 13.1433 26.2512V26.2512Z" fill="#5AB055"/>
    <path d="M8.50488 14.0779C8.50488 11.0708 10.9523 8.63208 13.9702 8.63208C16.9881 8.63208 19.4356 11.0708 19.4356 14.0779C19.4356 17.085 16.9881 19.5236 13.9702 19.5236C10.9523 19.5203 8.50488 17.085 8.50488 14.0779V14.0779Z" fill="white"/>
    <path d="M9.41968 14.0779C9.41968 11.5754 11.4553 9.54364 13.9703 9.54364C16.4818 9.54364 18.5208 11.572 18.5208 14.0779C18.5208 16.5806 16.4853 18.6123 13.9703 18.6123C11.4587 18.6123 9.41968 16.5806 9.41968 14.0779V14.0779Z" fill="url(#paint0_linear_1629_48944)"/>
    <path d="M25.0257 8.64226L18.2708 10.6168C18.2708 10.6168 17.2514 9.12657 15.0605 8.64226C16.9611 8.63213 25.0257 8.64226 25.0257 8.64226V8.64226Z" fill="#EACA05"/>
    <path d="M8.70405 15.5379C7.75536 13.8998 3.85303 7.18579 3.85303 7.18579L8.8559 12.117C8.8559 12.117 8.34273 13.1699 8.53523 14.6768L8.70395 15.5379H8.70405Z" fill="#DF3A32"/>
    <defs>
    <linearGradient id="paint0_linear_1629_48944" x1="13.9701" y1="9.60766" x2="13.9701" y2="18.3393" gradientUnits="userSpaceOnUse">
    <stop stop-color="#86BBE5"/>
    <stop offset="1" stop-color="#1072BA"/>
    </linearGradient>
    </defs>
</svg>
