<svg width="24" height="24" viewBox="0 0 24 24" fill="none" xmlns="http://www.w3.org/2000/svg">
<path fill-rule="evenodd" clip-rule="evenodd" d="M11.6402 3.07033C11.5055 3.125 11.3798 3.21147 11.2738 3.32952C11.2697 3.33404 11.2657 3.3386 11.2617 3.34319L8.07146 6.99693L7.99204 7.10004C7.70273 7.52764 7.75341 8.1259 8.12863 8.49146L8.22625 8.57535C8.63105 8.88095 9.19742 8.82742 9.54349 8.43106L10.9987 6.76376V14.5433L11.0055 14.6667C11.0633 15.1926 11.4865 15.601 12 15.601C12.553 15.601 13.0013 15.1274 13.0013 14.5433V6.61123L14.7534 8.46187L14.8477 8.54986C15.2405 8.87247 15.8085 8.84314 16.1694 8.46187C16.5605 8.04883 16.5605 7.37916 16.1694 6.96612L12.708 3.30978C12.6778 3.27786 12.6456 3.24797 12.6118 3.22033L12.6109 3.21952C12.5229 3.14768 12.4261 3.09354 12.3251 3.057C12.2321 3.02329 12.1329 3.00364 12.0297 3.00046C11.8977 2.99636 11.765 3.01971 11.6402 3.07033ZM20.9987 14.2066C21.5122 14.2066 21.9354 14.6148 21.9933 15.1409L22 15.2642V19.9423C22 20.4847 21.6135 20.9318 21.1155 20.9928L20.9987 21H3.00127C2.48778 21 2.06457 20.5916 2.00674 20.0657L2 19.9423V15.2642C2 14.6801 2.44828 14.2066 3.00127 14.2066C3.51476 14.2066 3.93797 14.6148 3.9958 15.1409L4.00254 15.2642L4.00168 18.8839H19.997L19.9975 15.2642C19.9975 14.7219 20.3839 14.2748 20.882 14.2137L20.9987 14.2066Z" fill="#6552FF"/>
</svg>
