<svg width="28" height="28" viewBox="0 0 28 28" fill="none" xmlns="http://www.w3.org/2000/svg">
<path d="M13.9998 26.25C20.7652 26.25 26.2498 20.7655 26.2498 14C26.2498 7.23451 20.7652 1.75 13.9998 1.75C7.23427 1.75 1.74976 7.23451 1.74976 14C1.74976 20.7655 7.23427 26.25 13.9998 26.25Z" fill="#FF492C"/>
<path d="M19.3014 11.1333H17.2091C17.2654 10.805 17.4688 10.6213 17.8804 10.413L18.265 10.217C18.9535 9.86425 19.321 9.46489 19.321 8.81319C19.321 8.40404 19.1617 8.08064 18.8457 7.84789C18.5296 7.61514 18.1572 7.5 17.7211 7.5C17.3838 7.49608 17.0525 7.59065 16.7681 7.77195C16.4814 7.94835 16.2683 8.17619 16.136 8.46039L16.7411 9.068C16.9763 8.5927 17.3169 8.35994 17.7652 8.35994C18.145 8.35994 18.3777 8.55594 18.3777 8.82789C18.3777 9.05574 18.265 9.2444 17.8289 9.4649L17.5815 9.58494C17.0449 9.85689 16.6725 10.168 16.4569 10.5208C16.2413 10.8736 16.136 11.3171 16.136 11.8536V12.0006H19.3014V11.1333Z" fill="white"/>
<path d="M19.0219 13.0002H15.5576L13.8254 15.999H17.2897L19.0219 19.0003L20.754 15.999L19.0219 13.0002Z" fill="white"/>
<path d="M14.1251 18.0005C11.9201 18.0005 10.1243 16.2047 10.1243 13.9997C10.1243 11.7947 11.9201 9.9988 14.1251 9.9988L15.4947 7.13475C15.0436 7.04508 14.585 7 14.1251 7C10.259 7 7.12549 10.1336 7.12549 13.9997C7.12549 17.8658 10.259 20.9993 14.1251 20.9993C15.6067 21.002 17.0504 20.5316 18.246 19.6567L16.7319 17.0303C16.0075 17.656 15.0824 18.0003 14.1251 18.0005Z" fill="white"/>
</svg>
