<svg class="pb-4" width="48" height="48" viewBox="0 0 48 48" fill="none" xmlns="http://www.w3.org/2000/svg">
    <path d="M0 24C0 10.7452 10.7452 0 24 0C37.2548 0 48 10.7452 48 24C48 37.2548 37.2548 48 24 48C10.7452 48 0 37.2548 0 24Z" fill="#E0DCFF"/>
    <path d="M20 19.7812C20 20.0547 20.1953 20.25 20.4688 20.25H22.0312C22.2656 20.25 22.5 20.0547 22.5 19.7812V18.2188C22.5 17.9844 22.2656 17.75 22.0312 17.75H20.4688C20.1953 17.75 20 17.9844 20 18.2188V19.7812ZM25.4688 20.25H27.0312C27.2656 20.25 27.5 20.0547 27.5 19.7812V18.2188C27.5 17.9844 27.2656 17.75 27.0312 17.75H25.4688C25.1953 17.75 25 17.9844 25 18.2188V19.7812C25 20.0547 25.1953 20.25 25.4688 20.25ZM20.4688 24H22.0312C22.2656 24 22.5 23.8047 22.5 23.5312V21.9688C22.5 21.7344 22.2656 21.5 22.0312 21.5H20.4688C20.1953 21.5 20 21.7344 20 21.9688V23.5312C20 23.8047 20.1953 24 20.4688 24ZM25.4688 24H27.0312C27.2656 24 27.5 23.8047 27.5 23.5312V21.9688C27.5 21.7344 27.2656 21.5 27.0312 21.5H25.4688C25.1953 21.5 25 21.7344 25 21.9688V23.5312C25 23.8047 25.1953 24 25.4688 24ZM22.5 27.2812V25.7188C22.5 25.4844 22.2656 25.25 22.0312 25.25H20.4688C20.1953 25.25 20 25.4844 20 25.7188V27.2812C20 27.5548 20.1953 27.75 20.4688 27.75H22.0312C22.2656 27.75 22.5 27.5548 22.5 27.2812ZM25.4688 27.75H27.0312C27.2656 27.75 27.5 27.5548 27.5 27.2812V25.7188C27.5 25.4844 27.2656 25.25 27.0312 25.25H25.4688C25.1953 25.25 25 25.4844 25 25.7188V27.2812C25 27.5548 25.1953 27.75 25.4688 27.75ZM32.5 32.5938C32.5 32.3594 32.2656 32.125 32.0312 32.125H31.25V14.9375C31.25 14.4297 30.8202 14 30.3125 14H17.1484C16.6406 14 16.2109 14.4297 16.2109 14.9375V32.125H15.4688C15.1953 32.125 15 32.3594 15 32.5938V34H32.5V32.5938ZM18.0859 32.086L18.125 15.875L29.375 15.9141V32.086H25V29.4688C25 29.2344 24.7656 29 24.5312 29H22.9688C22.6953 29 22.5 29.2344 22.5 29.4688V32.086H18.0859Z" fill="#6552FF"/>
</svg> 